Barrio.ufo
<glyph name="parenright" format="1">
  <advance width="383"/>
  <unicode hex="0029"/>
  <outline>
    <contour>
      <point x="184" y="751" type="curve"/>
      <point x="172" y="751"/>
      <point x="159" y="743"/>
      <point x="148" y="743" type="curve"/>
      <point x="64" y="743" type="line" smooth="yes"/>
      <point x="52" y="743"/>
      <point x="47" y="741"/>
      <point x="47" y="737" type="curve"/>
      <point x="47" y="732"/>
      <point x="54" y="725"/>
      <point x="67" y="715" type="curve"/>
      <point x="92" y="699"/>
      <point x="215" y="610"/>
      <point x="215" y="364" type="curve"/>
      <point x="215" y="122"/>
      <point x="46" y="-35"/>
      <point x="36" y="-50" type="curve"/>
      <point x="30" y="-56"/>
      <point x="28" y="-60"/>
      <point x="28" y="-63" type="curve"/>
      <point x="28" y="-66"/>
      <point x="31" y="-68"/>
      <point x="39" y="-68" type="curve"/>
      <point x="58" y="-68"/>
      <point x="92" y="-75"/>
      <point x="113" y="-75" type="curve"/>
      <point x="134" y="-75"/>
      <point x="151" y="-76"/>
      <point x="172" y="-61" type="curve"/>
      <point x="194" y="-48"/>
      <point x="351" y="10"/>
      <point x="351" y="417" type="curve"/>
      <point x="351" y="641"/>
      <point x="214" y="722"/>
      <point x="201" y="743" type="curve"/>
      <point x="196" y="749"/>
      <point x="190" y="751"/>
    </contour>
  </outline>
</glyph>
<glyph name="C" format="1">
  <advance width="515"/>
  <unicode hex="0043"/>
  <outline>
    <contour>
      <point x="495" y="114" type="curve"/>
      <point x="495" y="124"/>
      <point x="482" y="127"/>
      <point x="467" y="134" type="curve"/>
      <point x="382" y="181" type="line" smooth="yes"/>
      <point x="377" y="184"/>
      <point x="373" y="185"/>
      <point x="370" y="185" type="curve"/>
      <point x="365" y="185"/>
      <point x="362" y="180"/>
      <point x="355" y="173" type="curve"/>
      <point x="344" y="162"/>
      <point x="313" y="134"/>
      <point x="285" y="134" type="curve"/>
      <point x="257" y="134"/>
      <point x="167" y="166"/>
      <point x="167" y="329" type="curve"/>
      <point x="167" y="493"/>
      <point x="231" y="544"/>
      <point x="275" y="544" type="curve"/>
      <point x="300" y="544"/>
      <point x="316" y="523"/>
      <point x="335" y="502" type="curve"/>
      <point x="341" y="495"/>
      <point x="346" y="492"/>
      <point x="351" y="492" type="curve"/>
      <point x="361" y="492"/>
      <point x="371" y="504"/>
      <point x="382" y="518" type="curve"/>
      <point x="397" y="538"/>
      <point x="429" y="566"/>
      <point x="448" y="581" type="curve"/>
      <point x="456" y="588"/>
      <point x="459" y="593"/>
      <point x="459" y="597" type="curve"/>
      <point x="459" y="604"/>
      <point x="454" y="610"/>
      <point x="448" y="618" type="curve"/>
      <point x="437" y="634"/>
      <point x="382" y="704"/>
      <point x="271" y="704" type="curve"/>
      <point x="159" y="704"/>
      <point x="37" y="562"/>
      <point x="37" y="354" type="curve"/>
      <point x="37" y="146"/>
      <point x="162" y="-12"/>
      <point x="293" y="-12" type="curve"/>
      <point x="423" y="-12"/>
      <point x="481" y="84"/>
      <point x="492" y="103" type="curve"/>
      <point x="494" y="107"/>
      <point x="495" y="111"/>
    </contour>
    <contour>
      <point x="277" y="0" type="move" name="bottom"/>
    </contour>
    <contour>
      <point x="287" y="710" type="move" name="top"/>
    </contour>
  </outline>
</glyph>
<glyph name="L" format="1">
  <advance width="524"/>
  <unicode hex="004C"/>
  <outline>
    <contour>
      <point x="513" y="50" type="curve"/>
      <point x="394" y="51" type="line"/>
      <point x="251" y="56" type="line"/>
      <point x="249" y="91" type="line" smooth="yes"/>
      <point x="249" y="101"/>
      <point x="248" y="110"/>
      <point x="248" y="119" type="curve"/>
      <point x="248" y="127"/>
      <point x="249" y="135"/>
      <point x="249" y="139" type="curve"/>
      <point x="249" y="156"/>
      <point x="251" y="230"/>
      <point x="251" y="248" type="curve"/>
      <point x="251" y="267"/>
      <point x="248" y="429"/>
      <point x="248" y="473" type="curve"/>
      <point x="248" y="517"/>
      <point x="254" y="633"/>
      <point x="254" y="650" type="curve"/>
      <point x="254" y="674"/>
      <point x="270" y="701"/>
      <point x="230" y="696" type="curve"/>
      <point x="214" y="694"/>
      <point x="197" y="693"/>
      <point x="179" y="693" type="curve"/>
      <point x="152" y="693"/>
      <point x="126" y="695"/>
      <point x="112" y="697" type="curve"/>
      <point x="99" y="697"/>
      <point x="86" y="703"/>
      <point x="76" y="703" type="curve"/>
      <point x="68" y="703"/>
      <point x="63" y="699"/>
      <point x="63" y="686" type="curve"/>
      <point x="63" y="658"/>
      <point x="72" y="457"/>
      <point x="72" y="425" type="curve"/>
      <point x="72" y="393"/>
      <point x="68" y="126"/>
      <point x="68" y="90" type="curve"/>
      <point x="68" y="49"/>
      <point x="68" y="20"/>
      <point x="68" y="12" type="curve"/>
      <point x="68" y="2"/>
      <point x="73" y="-8"/>
      <point x="90" y="-8" type="curve"/>
      <point x="107" y="-8"/>
      <point x="309" y="1"/>
      <point x="343" y="1" type="curve"/>
      <point x="378" y="1"/>
      <point x="478" y="-8"/>
      <point x="495" y="-8" type="curve"/>
      <point x="511" y="-8"/>
      <point x="524" y="-11"/>
      <point x="524" y="2" type="curve"/>
      <point x="524" y="14"/>
      <point x="521" y="30"/>
      <point x="522" y="37" type="curve"/>
      <point x="522" y="44"/>
      <point x="526" y="50"/>
      <point x="515" y="50" type="curve"/>
      <point x="515" y="50"/>
      <point x="514" y="50"/>
    </contour>
    <contour>
      <point x="290" y="0" type="move" name="bottom"/>
    </contour>
    <contour>
      <point x="201" y="710" type="move" name="top"/>
    </contour>
  </outline>
</glyph>
<glyph name="W" format="1">
  <advance width="658"/>
  <unicode hex="0057"/>
  <outline>
    <contour>
      <point x="244" y="372" type="curve"/>
      <point x="234" y="344" type="line"/>
      <point x="230" y="331" type="line"/>
      <point x="213" y="375" type="line" smooth="yes"/>
      <point x="202" y="402"/>
      <point x="190" y="436"/>
      <point x="178" y="473" type="curve"/>
      <point x="149" y="545"/>
      <point x="124" y="639"/>
      <point x="116" y="666" type="curve"/>
      <point x="112" y="687"/>
      <point x="110" y="698"/>
      <point x="95" y="694" type="curve"/>
      <point x="84" y="692" type="line" smooth="yes"/>
      <point x="77" y="691"/>
      <point x="69" y="691"/>
      <point x="60" y="691" type="curve"/>
      <point x="29" y="691" type="line" smooth="yes"/>
      <point x="25" y="691"/>
      <point x="22" y="691"/>
      <point x="22" y="686" type="curve"/>
      <point x="22" y="682"/>
      <point x="23" y="676"/>
      <point x="26" y="666" type="curve"/>
      <point x="34" y="642"/>
      <point x="56" y="552"/>
      <point x="67" y="514" type="curve"/>
      <point x="78" y="477"/>
      <point x="123" y="307"/>
      <point x="133" y="283" type="curve"/>
      <point x="141" y="255"/>
      <point x="157" y="195"/>
      <point x="168" y="168" type="curve"/>
      <point x="179" y="141"/>
      <point x="201" y="28"/>
      <point x="206" y="20" type="curve"/>
      <point x="209" y="9"/>
      <point x="212" y="-1"/>
      <point x="223" y="-1" type="curve"/>
      <point x="230" y="-1"/>
      <point x="240" y="19"/>
      <point x="244" y="34" type="curve"/>
      <point x="247" y="44"/>
      <point x="275" y="165"/>
      <point x="289" y="206" type="curve"/>
      <point x="306" y="249"/>
      <point x="320" y="285"/>
      <point x="327" y="300" type="curve"/>
      <point x="341" y="328" type="line"/>
      <point x="355" y="291" type="line" smooth="yes"/>
      <point x="363" y="271"/>
      <point x="371" y="249"/>
      <point x="375" y="234" type="curve"/>
      <point x="383" y="211"/>
      <point x="409" y="136"/>
      <point x="417" y="117" type="curve"/>
      <point x="425" y="96"/>
      <point x="450" y="30"/>
      <point x="458" y="20" type="curve"/>
      <point x="465" y="5"/>
      <point x="468" y="-1"/>
      <point x="479" y="-1" type="curve"/>
      <point x="486" y="-1"/>
      <point x="486" y="15"/>
      <point x="489" y="30" type="curve"/>
      <point x="494" y="40"/>
      <point x="519" y="206"/>
      <point x="531" y="238" type="curve"/>
      <point x="542" y="265"/>
      <point x="545" y="285"/>
      <point x="545" y="296" type="curve"/>
      <point x="545" y="306"/>
      <point x="557" y="387"/>
      <point x="565" y="421" type="curve"/>
      <point x="576" y="456"/>
      <point x="607" y="580"/>
      <point x="617" y="611" type="curve"/>
      <point x="628" y="642"/>
      <point x="631" y="663"/>
      <point x="638" y="680" type="curve"/>
      <point x="639" y="685"/>
      <point x="640" y="689"/>
      <point x="640" y="692" type="curve"/>
      <point x="640" y="698"/>
      <point x="637" y="701"/>
      <point x="628" y="701" type="curve"/>
      <point x="625" y="702"/>
      <point x="620" y="702"/>
      <point x="615" y="702" type="curve"/>
      <point x="603" y="702"/>
      <point x="587" y="700"/>
      <point x="579" y="698" type="curve"/>
      <point x="568" y="698"/>
      <point x="558" y="691"/>
      <point x="555" y="663" type="curve"/>
      <point x="552" y="639"/>
      <point x="528" y="583"/>
      <point x="520" y="549" type="curve"/>
      <point x="509" y="510"/>
      <point x="507" y="466"/>
      <point x="500" y="445" type="curve"/>
      <point x="490" y="420" type="line"/>
      <point x="488" y="417"/>
      <point x="487" y="414"/>
      <point x="486" y="411" type="curve"/>
      <point x="468" y="451" type="line"/>
      <point x="437" y="518" type="line"/>
      <point x="424" y="549"/>
      <point x="397" y="621"/>
      <point x="389" y="642" type="curve"/>
      <point x="386" y="663"/>
      <point x="382" y="669"/>
      <point x="379" y="684" type="curve"/>
      <point x="375" y="699"/>
      <point x="376" y="701"/>
      <point x="365" y="701" type="curve"/>
      <point x="354" y="701"/>
      <point x="335" y="655"/>
      <point x="327" y="635" type="curve"/>
      <point x="319" y="611"/>
      <point x="283" y="511"/>
      <point x="275" y="480" type="curve"/>
      <point x="267" y="451"/>
      <point x="252" y="390"/>
    </contour>
    <contour>
      <point x="337" y="0" type="move" name="bottom"/>
    </contour>
    <contour>
      <point x="361" y="710" type="move" name="top"/>
    </contour>
  </outline>
</glyph>
<glyph name="Y" format="1">
  <advance width="496"/>
  <unicode hex="0059"/>
  <outline>
    <contour>
      <point x="163" y="-2" type="curve"/>
      <point x="184" y="-2"/>
      <point x="197" y="-2"/>
      <point x="203" y="-1" type="curve"/>
      <point x="230" y="-1" type="line"/>
      <point x="238" y="-2"/>
      <point x="243" y="5"/>
      <point x="246" y="19" type="curve"/>
      <point x="249" y="33"/>
      <point x="255" y="75"/>
      <point x="261" y="92" type="curve"/>
      <point x="265" y="109"/>
      <point x="339" y="284"/>
      <point x="354" y="330" type="curve"/>
      <point x="370" y="374"/>
      <point x="425" y="517"/>
      <point x="441" y="554" type="curve"/>
      <point x="457" y="592"/>
      <point x="477" y="658"/>
      <point x="482" y="670" type="curve"/>
      <point x="483" y="674"/>
      <point x="484" y="676"/>
      <point x="484" y="679" type="curve"/>
      <point x="484" y="684"/>
      <point x="479" y="687"/>
      <point x="463" y="689" type="curve"/>
      <point x="444" y="691"/>
      <point x="408" y="690"/>
      <point x="400" y="690" type="curve"/>
      <point x="386" y="690"/>
      <point x="370" y="695"/>
      <point x="362" y="661" type="curve"/>
      <point x="354" y="627"/>
      <point x="336" y="568"/>
      <point x="325" y="546" type="curve"/>
      <point x="322" y="541"/>
      <point x="318" y="531"/>
      <point x="313" y="517" type="curve"/>
      <point x="308" y="504"/>
      <point x="304" y="495"/>
      <point x="303" y="491" type="curve"/>
      <point x="293" y="465" type="line"/>
      <point x="282" y="435" type="line" smooth="yes"/>
      <point x="277" y="422"/>
      <point x="272" y="407"/>
      <point x="268" y="392" type="curve"/>
      <point x="260" y="367" type="line"/>
      <point x="255" y="384"/>
      <point x="249" y="400"/>
      <point x="244" y="415" type="curve"/>
      <point x="235" y="442"/>
      <point x="224" y="472"/>
      <point x="216" y="491" type="curve"/>
      <point x="205" y="517"/>
      <point x="193" y="560"/>
      <point x="185" y="585" type="curve"/>
      <point x="173" y="620"/>
      <point x="162" y="657"/>
      <point x="159" y="668" type="curve"/>
      <point x="156" y="679"/>
      <point x="162" y="686"/>
      <point x="145" y="689" type="curve"/>
      <point x="137" y="690"/>
      <point x="123" y="690"/>
      <point x="104" y="690" type="curve"/>
      <point x="95" y="691"/>
      <point x="86" y="691"/>
      <point x="80" y="691" type="curve"/>
      <point x="73" y="691"/>
      <point x="68" y="691"/>
      <point x="64" y="690" type="curve"/>
      <point x="49" y="689"/>
      <point x="34" y="688"/>
      <point x="34" y="677" type="curve"/>
      <point x="34" y="666"/>
      <point x="46" y="651"/>
      <point x="54" y="624" type="curve"/>
      <point x="62" y="598"/>
      <point x="120" y="430"/>
      <point x="131" y="400" type="curve"/>
      <point x="142" y="369"/>
      <point x="149" y="337"/>
      <point x="160" y="310" type="curve"/>
      <point x="171" y="286"/>
      <point x="184" y="234"/>
      <point x="189" y="223" type="curve"/>
      <point x="194" y="212"/>
      <point x="187" y="202"/>
      <point x="180" y="185" type="curve"/>
      <point x="173" y="166"/>
      <point x="157" y="128"/>
      <point x="153" y="111" type="curve"/>
      <point x="148" y="95"/>
      <point x="121" y="23"/>
      <point x="118" y="14" type="curve"/>
      <point x="117" y="10"/>
      <point x="114" y="6"/>
      <point x="114" y="3" type="curve"/>
      <point x="114" y="-1"/>
      <point x="117" y="-3"/>
      <point x="126" y="-3" type="curve"/>
      <point x="131" y="-3"/>
      <point x="143" y="-3"/>
    </contour>
    <contour>
      <point x="266" y="0" type="move" name="bottom"/>
    </contour>
    <contour>
      <point x="265" y="710" type="move" name="top"/>
    </contour>
  </outline>
</glyph>
<glyph name="u" format="1">
  <advance width="509"/>
  <unicode hex="0075"/>
  <outline>
    <contour>
      <point x="449" y="-9" type="curve"/>
      <point x="463" y="-9"/>
      <point x="467" y="-2"/>
      <point x="464" y="28" type="curve"/>
      <point x="464" y="295" type="line"/>
      <point x="465" y="319"/>
      <point x="462" y="414"/>
      <point x="460" y="478" type="curve"/>
      <point x="460" y="502"/>
      <point x="459" y="522"/>
      <point x="459" y="526" type="curve"/>
      <point x="459" y="562" type="line" smooth="yes"/>
      <point x="459" y="571"/>
      <point x="452" y="572"/>
      <point x="443" y="571" type="curve"/>
      <point x="424" y="570"/>
      <point x="398" y="570"/>
      <point x="379" y="571" type="curve"/>
      <point x="367" y="572"/>
      <point x="358" y="568"/>
      <point x="358" y="559" type="curve"/>
      <point x="358" y="520"/>
      <point x="364" y="396"/>
      <point x="364" y="280" type="curve"/>
      <point x="364" y="214"/>
      <point x="363" y="150"/>
      <point x="361" y="102" type="curve"/>
      <point x="327" y="81"/>
      <point x="272" y="57"/>
      <point x="221" y="57" type="curve"/>
      <point x="156" y="57"/>
      <point x="142" y="71"/>
      <point x="119" y="119" type="curve"/>
      <point x="100" y="161"/>
      <point x="107" y="286"/>
      <point x="107" y="309" type="curve"/>
      <point x="108" y="358"/>
      <point x="113" y="522"/>
      <point x="113" y="550" type="curve"/>
      <point x="113" y="564"/>
      <point x="105" y="567"/>
      <point x="96" y="567" type="curve"/>
      <point x="81" y="567"/>
      <point x="64" y="570"/>
      <point x="55" y="567" type="curve"/>
      <point x="46" y="565"/>
      <point x="40" y="562"/>
      <point x="40" y="544" type="curve"/>
      <point x="40" y="522"/>
      <point x="40" y="414"/>
      <point x="40" y="376" type="curve"/>
      <point x="40" y="344"/>
      <point x="40" y="229"/>
      <point x="40" y="202" type="curve"/>
      <point x="40" y="174"/>
      <point x="46" y="92"/>
      <point x="73" y="59" type="curve"/>
      <point x="109" y="9"/>
      <point x="147" y="-6"/>
      <point x="206" y="-6" type="curve"/>
      <point x="278" y="-6"/>
      <point x="319" y="18"/>
      <point x="359" y="38" type="curve"/>
      <point x="359" y="31"/>
      <point x="358" y="26"/>
      <point x="358" y="24" type="curve"/>
      <point x="358" y="8"/>
      <point x="353" y="-10"/>
      <point x="374" y="-8" type="curve"/>
      <point x="395" y="-7"/>
      <point x="449" y="-9"/>
    </contour>
    <contour>
      <point x="427" y="0" type="move" name="bottom"/>
    </contour>
    <contour>
      <point x="252" y="602" type="move" name="top"/>
    </contour>
  </outline>
</glyph>
<glyph name="sterling" format="1">
  <advance width="500"/>
  <unicode hex="00A3"/>
  <outline>
    <contour>
      <point x="474" y="59" type="curve"/>
      <point x="371" y="60" type="line"/>
      <point x="300" y="63" type="line" smooth="yes"/>
      <point x="284" y="64"/>
      <point x="252" y="64"/>
      <point x="203" y="65" type="curve"/>
      <point x="214" y="70"/>
      <point x="223" y="76"/>
      <point x="229" y="84" type="curve"/>
      <point x="245" y="109"/>
      <point x="245" y="139"/>
      <point x="246" y="148" type="curve"/>
      <point x="246" y="165"/>
      <point x="248" y="239"/>
      <point x="248" y="257" type="curve"/>
      <point x="248" y="260"/>
      <point x="248" y="267"/>
      <point x="248" y="277" type="curve"/>
      <point x="279" y="278" type="line" smooth="yes"/>
      <point x="302" y="278"/>
      <point x="332" y="281"/>
      <point x="340" y="281" type="curve"/>
      <point x="345" y="281"/>
      <point x="350" y="280"/>
      <point x="354" y="280" type="curve"/>
      <point x="359" y="280"/>
      <point x="363" y="282"/>
      <point x="363" y="288" type="curve"/>
      <point x="363" y="338" type="line" smooth="yes"/>
      <point x="363" y="341"/>
      <point x="364" y="344"/>
      <point x="364" y="347" type="curve"/>
      <point x="364" y="351"/>
      <point x="362" y="355"/>
      <point x="355" y="355" type="curve"/>
      <point x="246" y="355" type="line"/>
      <point x="245" y="386" type="line"/>
      <point x="245" y="530"/>
      <point x="271" y="564"/>
      <point x="300" y="564" type="curve"/>
      <point x="331" y="564"/>
      <point x="347" y="536"/>
      <point x="353" y="527" type="curve"/>
      <point x="359" y="520"/>
      <point x="363" y="508"/>
      <point x="371" y="508" type="curve"/>
      <point x="373" y="508"/>
      <point x="376" y="509"/>
      <point x="378" y="511" type="curve"/>
      <point x="393" y="519"/>
      <point x="436" y="563"/>
      <point x="449" y="573" type="curve"/>
      <point x="458" y="579"/>
      <point x="468" y="585"/>
      <point x="468" y="595" type="curve"/>
      <point x="468" y="600"/>
      <point x="466" y="607"/>
      <point x="460" y="615" type="curve"/>
      <point x="441" y="642"/>
      <point x="408" y="729"/>
      <point x="284" y="729" type="curve"/>
      <point x="288" y="729"/>
      <point x="249" y="725"/>
      <point x="216" y="706" type="curve"/>
      <point x="200" y="697"/>
      <point x="184" y="685"/>
      <point x="169" y="669" type="curve"/>
      <point x="125" y="621"/>
      <point x="91" y="533"/>
      <point x="91" y="382" type="curve"/>
      <point x="91" y="352" type="line"/>
      <point x="48" y="352" type="line"/>
      <point x="43" y="353"/>
      <point x="38" y="354"/>
      <point x="35" y="354" type="curve"/>
      <point x="28" y="354"/>
      <point x="25" y="352"/>
      <point x="25" y="348" type="curve"/>
      <point x="22" y="342"/>
      <point x="29" y="301"/>
      <point x="29" y="291" type="curve"/>
      <point x="29" y="280"/>
      <point x="25" y="275"/>
      <point x="45" y="275" type="curve"/>
      <point x="53" y="275"/>
      <point x="72" y="273"/>
      <point x="90" y="273" type="curve"/>
      <point x="90" y="264" type="line" smooth="yes"/>
      <point x="89" y="236"/>
      <point x="89" y="200"/>
      <point x="89" y="156" type="curve"/>
      <point x="89" y="131"/>
      <point x="77" y="113"/>
      <point x="54" y="103" type="curve"/>
      <point x="31" y="93"/>
      <point x="19" y="87"/>
      <point x="19" y="85" type="curve"/>
      <point x="17" y="61"/>
      <point x="15" y="36"/>
      <point x="15" y="19" type="curve"/>
      <point x="15" y="8"/>
      <point x="16" y="1"/>
      <point x="19" y="1" type="curve"/>
      <point x="127" y="1" type="line"/>
      <point x="165" y="3" type="line"/>
      <point x="212" y="5" type="line"/>
      <point x="262" y="9"/>
      <point x="312" y="10"/>
      <point x="327" y="10" type="curve"/>
      <point x="357" y="10"/>
      <point x="444" y="1"/>
      <point x="459" y="1" type="curve"/>
      <point x="472" y="1"/>
      <point x="484" y="-2"/>
      <point x="484" y="11" type="curve"/>
      <point x="484" y="23"/>
      <point x="481" y="39"/>
      <point x="482" y="46" type="curve"/>
      <point x="482" y="53"/>
      <point x="485" y="59"/>
      <point x="476" y="59" type="curve"/>
      <point x="475" y="59"/>
      <point x="475" y="59"/>
    </contour>
  </outline>
</glyph>
<glyph name="dieresis" format="1">
  <advance width="455"/>
  <unicode hex="00A8"/>
  <outline>
    <contour>
      <point x="347" y="847" type="curve"/>
      <point x="320" y="847"/>
      <point x="273" y="840"/>
      <point x="273" y="785" type="curve"/>
      <point x="273" y="762"/>
      <point x="283" y="731"/>
      <point x="327" y="731" type="curve"/>
      <point x="370" y="731"/>
      <point x="390" y="758"/>
      <point x="390" y="785" type="curve"/>
      <point x="390" y="816"/>
      <point x="374" y="847"/>
    </contour>
    <contour>
      <point x="122" y="727" type="curve"/>
      <point x="147" y="727"/>
      <point x="184" y="752"/>
      <point x="184" y="789" type="curve"/>
      <point x="184" y="824"/>
      <point x="149" y="840"/>
      <point x="118" y="840" type="curve"/>
      <point x="87" y="840"/>
      <point x="64" y="812"/>
      <point x="64" y="785" type="curve"/>
      <point x="64" y="749"/>
      <point x="95" y="727"/>
    </contour>
    <contour>
      <point x="230" y="710" type="move" name="_top"/>
    </contour>
    <contour>
      <point x="230" y="900" type="move" name="top"/>
    </contour>
  </outline>
</glyph>
<glyph name="uni00B9" format="1">
  <advance width="236"/>
  <unicode hex="00B9"/>
  <outline>
    <contour>
      <point x="13" y="637" type="curve"/>
      <point x="14" y="630"/>
      <point x="41" y="641"/>
      <point x="97" y="652" type="curve"/>
      <point x="94" y="603" type="line" smooth="yes"/>
      <point x="94" y="595"/>
      <point x="93" y="586"/>
      <point x="93" y="578" type="curve"/>
      <point x="93" y="569"/>
      <point x="94" y="561"/>
      <point x="94" y="552" type="curve"/>
      <point x="97" y="525"/>
      <point x="96" y="487"/>
      <point x="96" y="460" type="curve"/>
      <point x="96" y="447"/>
      <point x="96" y="437"/>
      <point x="97" y="432" type="curve"/>
      <point x="97" y="425"/>
      <point x="97" y="418"/>
      <point x="96" y="410" type="curve"/>
      <point x="95" y="404"/>
      <point x="88" y="400"/>
      <point x="73" y="400" type="curve"/>
      <point x="71" y="400"/>
      <point x="69" y="400"/>
      <point x="67" y="400" type="curve"/>
      <point x="50" y="396"/>
      <point x="33" y="393"/>
      <point x="16" y="390" type="curve"/>
      <point x="12" y="389"/>
      <point x="10" y="385"/>
      <point x="10" y="378" type="curve"/>
      <point x="10" y="376"/>
      <point x="10" y="375"/>
      <point x="10" y="373" type="curve"/>
      <point x="11" y="363"/>
      <point x="14" y="358"/>
      <point x="19" y="358" type="curve"/>
      <point x="36" y="359"/>
      <point x="54" y="360"/>
      <point x="73" y="359" type="curve"/>
      <point x="147" y="362" type="line"/>
      <point x="172" y="361"/>
      <point x="188" y="358"/>
      <point x="213" y="358" type="curve"/>
      <point x="225" y="357"/>
      <point x="228" y="363"/>
      <point x="228" y="371" type="curve"/>
      <point x="228" y="377"/>
      <point x="226" y="384"/>
      <point x="226" y="390" type="curve"/>
      <point x="226" y="393"/>
      <point x="206" y="395"/>
      <point x="166" y="397" type="curve"/>
      <point x="162" y="416"/>
      <point x="161" y="471"/>
      <point x="161" y="488" type="curve"/>
      <point x="161" y="509"/>
      <point x="161" y="524"/>
      <point x="160" y="532" type="curve"/>
      <point x="159" y="540"/>
      <point x="159" y="550"/>
      <point x="159" y="563" type="curve"/>
      <point x="159" y="588"/>
      <point x="158" y="604"/>
      <point x="163" y="644" type="curve"/>
      <point x="163" y="663"/>
      <point x="164" y="679"/>
      <point x="164" y="704" type="curve"/>
      <point x="164" y="708"/>
      <point x="159" y="711"/>
      <point x="150" y="711" type="curve"/>
      <point x="147" y="711"/>
      <point x="142" y="710"/>
      <point x="137" y="709" type="curve"/>
      <point x="92" y="689"/>
      <point x="55" y="679"/>
      <point x="28" y="678" type="curve"/>
      <point x="15" y="673"/>
      <point x="11" y="671"/>
      <point x="11" y="658" type="curve"/>
      <point x="11" y="655"/>
      <point x="11" y="650"/>
      <point x="12" y="643" type="curve"/>
      <point x="12" y="641"/>
      <point x="12" y="639"/>
    </contour>
  </outline>
</glyph>
<glyph name="thorn" format="1">
  <advance width="570"/>
  <unicode hex="00FE"/>
  <outline>
    <contour>
      <point x="71" y="492" type="curve"/>
      <point x="73" y="232" type="line"/>
      <point x="74" y="219"/>
      <point x="74" y="208"/>
      <point x="74" y="197" type="curve"/>
      <point x="74" y="143" type="line" smooth="yes"/>
      <point x="74" y="116"/>
      <point x="65" y="-83"/>
      <point x="65" y="-106" type="curve"/>
      <point x="65" y="-130"/>
      <point x="66" y="-141"/>
      <point x="66" y="-146" type="curve"/>
      <point x="66" y="-152"/>
      <point x="66" y="-158"/>
      <point x="79" y="-158" type="curve"/>
      <point x="212" y="-159" type="line" smooth="yes"/>
      <point x="217" y="-159"/>
      <point x="223" y="-161"/>
      <point x="230" y="-161" type="curve"/>
      <point x="234" y="-161"/>
      <point x="238" y="-160"/>
      <point x="238" y="-154" type="curve"/>
      <point x="239" y="-89" type="line" smooth="yes"/>
      <point x="239" y="-84"/>
      <point x="240" y="-38"/>
      <point x="240" y="8" type="curve"/>
      <point x="263" y="-6"/>
      <point x="307" y="-14"/>
      <point x="347" y="-14" type="curve"/>
      <point x="471" y="-14"/>
      <point x="530" y="124"/>
      <point x="530" y="283" type="curve"/>
      <point x="530" y="340"/>
      <point x="515" y="592"/>
      <point x="353" y="592" type="curve"/>
      <point x="303" y="592"/>
      <point x="264" y="577"/>
      <point x="237" y="557" type="curve"/>
      <point x="237" y="564" type="line" smooth="yes"/>
      <point x="237" y="738"/>
      <point x="238" y="744"/>
      <point x="228" y="744" type="curve"/>
      <point x="220" y="744"/>
      <point x="153" y="741"/>
      <point x="141" y="741" type="curve"/>
      <point x="129" y="741"/>
      <point x="90" y="744"/>
      <point x="82" y="744" type="curve"/>
      <point x="76" y="744"/>
      <point x="67" y="746"/>
      <point x="67" y="732" type="curve"/>
      <point x="67" y="717"/>
      <point x="71" y="509"/>
    </contour>
    <contour>
      <point x="238" y="392" type="line"/>
      <point x="247" y="402"/>
      <point x="262" y="419"/>
      <point x="288" y="419" type="curve"/>
      <point x="340" y="419"/>
      <point x="355" y="386"/>
      <point x="355" y="286" type="curve"/>
      <point x="355" y="176"/>
      <point x="320" y="156"/>
      <point x="288" y="156" type="curve"/>
      <point x="269" y="156"/>
      <point x="251" y="164"/>
      <point x="239" y="178" type="curve"/>
      <point x="239" y="198"/>
      <point x="239" y="219"/>
      <point x="239" y="242" type="curve"/>
      <point x="239" y="261"/>
      <point x="236" y="334"/>
      <point x="236" y="359" type="curve"/>
    </contour>
  </outline>
</glyph>
<glyph name="Idotaccent" format="1">
  <advance width="153"/>
  <unicode hex="0130"/>
  <outline>
    <contour>
      <point x="111" y="555" type="curve"/>
      <point x="112" y="590"/>
      <point x="113" y="628"/>
      <point x="116" y="648" type="curve"/>
      <point x="116" y="656"/>
      <point x="118" y="665"/>
      <point x="118" y="672" type="curve"/>
      <point x="118" y="680"/>
      <point x="116" y="686"/>
      <point x="108" y="686" type="curve"/>
      <point x="93" y="686"/>
      <point x="78" y="687"/>
      <point x="71" y="687" type="curve"/>
      <point x="58" y="687"/>
      <point x="55" y="675"/>
      <point x="55" y="661" type="curve"/>
      <point x="55" y="654"/>
      <point x="56" y="647"/>
      <point x="56" y="640" type="curve"/>
      <point x="59" y="616"/>
      <point x="49" y="442"/>
      <point x="49" y="376" type="curve"/>
      <point x="49" y="310"/>
      <point x="45" y="73"/>
      <point x="45" y="35" type="curve"/>
      <point x="45" y="-11"/>
      <point x="36" y="-7"/>
      <point x="69" y="-7" type="curve"/>
      <point x="81" y="-7"/>
      <point x="94" y="-7"/>
      <point x="100" y="-3" type="curve"/>
      <point x="106" y="0"/>
      <point x="110" y="2"/>
      <point x="110" y="13" type="curve"/>
      <point x="110" y="17"/>
      <point x="110" y="21"/>
      <point x="109" y="27" type="curve"/>
      <point x="106" y="52"/>
      <point x="103" y="227"/>
      <point x="103" y="279" type="curve"/>
      <point x="103" y="330"/>
      <point x="109" y="501"/>
    </contour>
    <component base="dotaccent" xOffset="-5"/>
  </outline>
</glyph>
<glyph name="Scedilla" format="1">
  <advance width="576"/>
  <unicode hex="015E"/>
  <outline>
    <contour>
      <point x="313" y="19" type="curve"/>
      <point x="450" y="29"/>
      <point x="538" y="86"/>
      <point x="538" y="199" type="curve"/>
      <point x="538" y="387"/>
      <point x="390" y="434"/>
      <point x="342" y="453" type="curve"/>
      <point x="297" y="472"/>
      <point x="225" y="499"/>
      <point x="225" y="560" type="curve"/>
      <point x="225" y="624"/>
      <point x="263" y="626"/>
      <point x="289" y="626" type="curve"/>
      <point x="361" y="626"/>
      <point x="455" y="528"/>
      <point x="465" y="528" type="curve"/>
      <point x="476" y="528"/>
      <point x="476" y="535"/>
      <point x="485" y="544" type="curve"/>
      <point x="496" y="556"/>
      <point x="513" y="583"/>
      <point x="520" y="592" type="curve"/>
      <point x="523" y="597"/>
      <point x="526" y="601"/>
      <point x="526" y="606" type="curve"/>
      <point x="526" y="608"/>
      <point x="525" y="611"/>
      <point x="522" y="614" type="curve"/>
      <point x="512" y="620"/>
      <point x="422" y="717"/>
      <point x="269" y="717" type="curve"/>
      <point x="196" y="717"/>
      <point x="49" y="639"/>
      <point x="49" y="518" type="curve"/>
      <point x="49" y="394"/>
      <point x="186" y="353"/>
      <point x="232" y="321" type="curve"/>
      <point x="277" y="292"/>
      <point x="341" y="241"/>
      <point x="341" y="182" type="curve"/>
      <point x="341" y="124"/>
      <point x="283" y="117"/>
      <point x="247" y="117" type="curve"/>
      <point x="169" y="117"/>
      <point x="123" y="162"/>
      <point x="112" y="173" type="curve"/>
      <point x="103" y="180"/>
      <point x="97" y="190"/>
      <point x="90" y="190" type="curve"/>
      <point x="88" y="190"/>
      <point x="85" y="189"/>
      <point x="83" y="187" type="curve"/>
      <point x="72" y="176"/>
      <point x="53" y="157"/>
      <point x="45" y="146" type="curve"/>
      <point x="40" y="140"/>
      <point x="37" y="138"/>
      <point x="37" y="134" type="curve"/>
      <point x="37" y="131"/>
      <point x="38" y="128"/>
      <point x="41" y="124" type="curve"/>
      <point x="50" y="115"/>
      <point x="102" y="17"/>
      <point x="266" y="17" type="curve"/>
      <point x="261" y="3"/>
      <point x="258" y="-8"/>
      <point x="256" y="-18" type="curve"/>
      <point x="252" y="-34"/>
      <point x="249" y="-37"/>
      <point x="249" y="-54" type="curve"/>
      <point x="250" y="-61"/>
      <point x="256" y="-62"/>
      <point x="280" y="-62" type="curve"/>
      <point x="287" y="-62"/>
      <point x="298" y="-48"/>
      <point x="313" y="-48" type="curve"/>
      <point x="332" y="-48"/>
      <point x="337" y="-62"/>
      <point x="337" y="-81" type="curve"/>
      <point x="331" y="-106"/>
      <point x="322" y="-105"/>
      <point x="296" y="-107" type="curve"/>
      <point x="279" y="-107"/>
      <point x="271" y="-105"/>
      <point x="258" y="-101" type="curve"/>
      <point x="245" y="-94"/>
      <point x="238" y="-88"/>
      <point x="234" y="-88" type="curve"/>
      <point x="232" y="-88"/>
      <point x="231" y="-89"/>
      <point x="231" y="-92" type="curve"/>
      <point x="226" y="-115"/>
      <point x="223" y="-130"/>
      <point x="223" y="-141" type="curve"/>
      <point x="223" y="-152"/>
      <point x="259" y="-160"/>
      <point x="290" y="-160" type="curve"/>
      <point x="335" y="-160"/>
      <point x="342" y="-155"/>
      <point x="353" y="-150" type="curve"/>
      <point x="358" y="-147"/>
      <point x="363" y="-144"/>
      <point x="368" y="-139" type="curve"/>
      <point x="379" y="-130"/>
      <point x="398" y="-117"/>
      <point x="399" y="-85" type="curve"/>
      <point x="399" y="-30"/>
      <point x="370" y="-15"/>
      <point x="337" y="-15" type="curve"/>
      <point x="306" y="-15"/>
      <point x="302" y="-17"/>
      <point x="289" y="-24" type="curve"/>
      <point x="293" y="-10"/>
      <point x="300" y="1"/>
    </contour>
  </outline>
</glyph>
<glyph name="uni0308" format="1">
  <advance width="0"/>
  <unicode hex="0308"/>
  <outline>
    <contour>
      <point x="357" y="847" type="curve"/>
      <point x="330" y="847"/>
      <point x="283" y="840"/>
      <point x="283" y="785" type="curve"/>
      <point x="283" y="761"/>
      <point x="294" y="731"/>
      <point x="337" y="731" type="curve"/>
      <point x="380" y="731"/>
      <point x="400" y="758"/>
      <point x="400" y="785" type="curve"/>
      <point x="400" y="816"/>
      <point x="384" y="847"/>
    </contour>
    <contour>
      <point x="112" y="727" type="curve"/>
      <point x="136" y="727"/>
      <point x="174" y="749"/>
      <point x="174" y="789" type="curve"/>
      <point x="174" y="824"/>
      <point x="139" y="840"/>
      <point x="108" y="840" type="curve"/>
      <point x="77" y="840"/>
      <point x="54" y="812"/>
      <point x="54" y="785" type="curve"/>
      <point x="54" y="749"/>
      <point x="85" y="727"/>
    </contour>
    <contour>
      <point x="227" y="710" type="move" name="_top"/>
    </contour>
    <contour>
      <point x="227" y="900" type="move" name="top"/>
    </contour>
  </outline>
</glyph>
<glyph name="pi" format="1">
  <advance width="500"/>
  <unicode hex="03C0"/>
  <outline>
    <contour>
      <point x="40" y="685" type="curve"/>
      <point x="19" y="685"/>
      <point x="8" y="677"/>
      <point x="8" y="660" type="curve"/>
      <point x="8" y="624" type="line" smooth="yes"/>
      <point x="8" y="620"/>
      <point x="6" y="599"/>
      <point x="15" y="594" type="curve"/>
      <point x="20" y="591"/>
      <point x="31" y="585"/>
      <point x="50" y="576" type="curve"/>
      <point x="66" y="572"/>
      <point x="83" y="569"/>
      <point x="102" y="567" type="curve"/>
      <point x="100" y="471" type="line"/>
      <point x="100" y="411" type="line" smooth="yes"/>
      <point x="100" y="350"/>
      <point x="102" y="106"/>
      <point x="102" y="65" type="curve"/>
      <point x="102" y="22"/>
      <point x="97" y="-1"/>
      <point x="125" y="2" type="curve"/>
      <point x="153" y="5"/>
      <point x="176" y="6"/>
      <point x="195" y="5" type="curve"/>
      <point x="193" y="4"/>
      <point x="220" y="1"/>
      <point x="220" y="26" type="curve"/>
      <point x="220" y="30"/>
      <point x="219" y="35"/>
      <point x="218" y="40" type="curve"/>
      <point x="214" y="60"/>
      <point x="213" y="101"/>
      <point x="213" y="144" type="curve"/>
      <point x="213" y="186"/>
      <point x="214" y="229"/>
      <point x="214" y="252" type="curve"/>
      <point x="214" y="275"/>
      <point x="215" y="297"/>
      <point x="216" y="313" type="curve"/>
      <point x="217" y="322"/>
      <point x="216" y="344"/>
      <point x="215" y="378" type="curve"/>
      <point x="218" y="453" type="line"/>
      <point x="222" y="542" type="line"/>
      <point x="223" y="569" type="line"/>
      <point x="254" y="571"/>
      <point x="279" y="574"/>
      <point x="299" y="578" type="curve"/>
      <point x="312" y="581"/>
      <point x="323" y="583"/>
      <point x="333" y="585" type="curve"/>
      <point x="330" y="537"/>
      <point x="330" y="495"/>
      <point x="330" y="479" type="curve"/>
      <point x="330" y="462"/>
      <point x="331" y="441"/>
      <point x="331" y="424" type="curve"/>
      <point x="328" y="394" type="line"/>
      <point x="327" y="375"/>
      <point x="327" y="358"/>
      <point x="327" y="343" type="curve"/>
      <point x="327" y="328"/>
      <point x="325" y="310"/>
      <point x="324" y="295" type="curve"/>
      <point x="323" y="286"/>
      <point x="322" y="278"/>
      <point x="322" y="269" type="curve"/>
      <point x="322" y="229"/>
      <point x="321" y="182"/>
      <point x="322" y="161" type="curve"/>
      <point x="322" y="114"/>
      <point x="321" y="11"/>
      <point x="321" y="11" type="curve"/>
      <point x="321" y="11"/>
      <point x="320" y="4"/>
      <point x="333" y="4" type="curve"/>
      <point x="348" y="4"/>
      <point x="378" y="5"/>
      <point x="386" y="6" type="curve"/>
      <point x="392" y="7"/>
      <point x="400" y="5"/>
      <point x="400" y="13" type="curve"/>
      <point x="400" y="15"/>
      <point x="400" y="17"/>
      <point x="399" y="19" type="curve"/>
      <point x="397" y="26"/>
      <point x="396" y="37"/>
      <point x="396" y="50" type="curve"/>
      <point x="396" y="64"/>
      <point x="397" y="80"/>
      <point x="397" y="89" type="curve"/>
      <point x="397" y="107"/>
      <point x="406" y="256"/>
      <point x="406" y="302" type="curve"/>
      <point x="406" y="323"/>
      <point x="408" y="389"/>
      <point x="410" y="454" type="curve"/>
      <point x="412" y="506"/>
      <point x="413" y="555"/>
      <point x="415" y="584" type="curve"/>
      <point x="442" y="578"/>
      <point x="454" y="567"/>
      <point x="471" y="564" type="curve"/>
      <point x="482" y="563"/>
      <point x="488" y="564"/>
      <point x="489" y="568" type="curve"/>
      <point x="493" y="585"/>
      <point x="492" y="624"/>
      <point x="492" y="637" type="curve"/>
      <point x="492" y="649"/>
      <point x="491" y="655"/>
      <point x="462" y="670" type="curve"/>
      <point x="448" y="678"/>
      <point x="427" y="683"/>
      <point x="400" y="685" type="curve"/>
      <point x="373" y="685"/>
      <point x="352" y="683"/>
      <point x="336" y="680" type="curve"/>
      <point x="320" y="677"/>
      <point x="300" y="674"/>
      <point x="276" y="672" type="curve"/>
      <point x="228" y="669"/>
      <point x="195" y="658"/>
      <point x="131" y="653" type="curve"/>
      <point x="98" y="653"/>
      <point x="65" y="685"/>
    </contour>
  </outline>
</glyph>
<glyph name="quoteright" format="1">
  <advance width="199"/>
  <unicode hex="2019"/>
  <outline>
    <contour>
      <point x="28" y="656" type="curve"/>
      <point x="33" y="646"/>
      <point x="48" y="634"/>
      <point x="73" y="620" type="curve"/>
      <point x="88" y="612"/>
      <point x="96" y="604"/>
      <point x="96" y="581" type="curve"/>
      <point x="96" y="573"/>
      <point x="95" y="563"/>
      <point x="93" y="551" type="curve"/>
      <point x="84" y="512"/>
      <point x="55" y="492"/>
      <point x="53" y="477" type="curve"/>
      <point x="54" y="474"/>
      <point x="76" y="449"/>
      <point x="92" y="449" type="curve"/>
      <point x="95" y="449"/>
      <point x="98" y="450"/>
      <point x="100" y="453" type="curve"/>
      <point x="123" y="486"/>
      <point x="140" y="520"/>
      <point x="153" y="554" type="curve"/>
      <point x="168" y="599"/>
      <point x="166" y="645"/>
      <point x="166" y="677" type="curve"/>
      <point x="159" y="737"/>
      <point x="124" y="752"/>
      <point x="91" y="752" type="curve"/>
      <point x="57" y="752"/>
      <point x="21" y="727"/>
      <point x="21" y="698" type="curve"/>
      <point x="21" y="680"/>
      <point x="23" y="666"/>
    </contour>
  </outline>
</glyph>
<glyph name="quotedblbase" format="1">
  <advance width="441"/>
  <unicode hex="201E"/>
  <outline>
    <contour>
      <point x="50" y="34" type="curve"/>
      <point x="54" y="20"/>
      <point x="69" y="6"/>
      <point x="94" y="-8" type="curve"/>
      <point x="107" y="-14"/>
      <point x="114" y="-21"/>
      <point x="114" y="-36" type="curve"/>
      <point x="114" y="-43"/>
      <point x="112" y="-53"/>
      <point x="108" y="-65" type="curve"/>
      <point x="98" y="-104"/>
      <point x="75" y="-108"/>
      <point x="68" y="-139" type="curve"/>
      <point x="83" y="-142"/>
      <point x="100" y="-167"/>
      <point x="115" y="-167" type="curve"/>
      <point x="118" y="-167"/>
      <point x="121" y="-166"/>
      <point x="124" y="-163" type="curve"/>
      <point x="147" y="-130"/>
      <point x="164" y="-96"/>
      <point x="177" y="-62" type="curve"/>
      <point x="192" y="-17"/>
      <point x="190" y="29"/>
      <point x="190" y="61" type="curve"/>
      <point x="183" y="121"/>
      <point x="148" y="136"/>
      <point x="115" y="136" type="curve"/>
      <point x="81" y="136"/>
      <point x="45" y="111"/>
      <point x="45" y="82" type="curve"/>
      <point x="45" y="64"/>
      <point x="47" y="48"/>
    </contour>
    <contour>
      <point x="246" y="34" type="curve"/>
      <point x="250" y="20"/>
      <point x="265" y="6"/>
      <point x="290" y="-8" type="curve"/>
      <point x="304" y="-14"/>
      <point x="316" y="-21"/>
      <point x="316" y="-38" type="curve"/>
      <point x="316" y="-45"/>
      <point x="314" y="-54"/>
      <point x="309" y="-66" type="curve"/>
      <point x="291" y="-102"/>
      <point x="269" y="-111"/>
      <point x="272" y="-134" type="curve"/>
      <point x="284" y="-151"/>
      <point x="290" y="-157"/>
      <point x="302" y="-165" type="curve"/>
      <point x="305" y="-167"/>
      <point x="308" y="-168"/>
      <point x="311" y="-168" type="curve"/>
      <point x="314" y="-168"/>
      <point x="317" y="-166"/>
      <point x="320" y="-163" type="curve"/>
      <point x="343" y="-135"/>
      <point x="363" y="-102"/>
      <point x="380" y="-63" type="curve"/>
      <point x="387" y="-36"/>
      <point x="392" y="-12"/>
      <point x="392" y="14" type="curve"/>
      <point x="392" y="35"/>
      <point x="389" y="56"/>
      <point x="382" y="81" type="curve"/>
      <point x="363" y="134"/>
      <point x="344" y="136"/>
      <point x="311" y="136" type="curve"/>
      <point x="277" y="136"/>
      <point x="241" y="111"/>
      <point x="241" y="82" type="curve"/>
      <point x="241" y="64"/>
      <point x="243" y="48"/>
    </contour>
  </outline>
</glyph>
<glyph name="arrowright" format="1">
  <advance width="720"/>
  <unicode hex="2192"/>
  <outline>
    <contour>
      <point x="357" y="284" type="curve"/>
      <point x="356" y="245"/>
      <point x="353" y="162"/>
      <point x="361" y="146" type="curve"/>
      <point x="382" y="160"/>
      <point x="397" y="173"/>
      <point x="408" y="183" type="curve"/>
      <point x="444" y="211"/>
      <point x="467" y="230"/>
      <point x="496" y="257" type="curve"/>
      <point x="528" y="287"/>
      <point x="543" y="292"/>
      <point x="568" y="311" type="curve"/>
      <point x="584" y="327"/>
      <point x="598" y="336"/>
      <point x="612" y="346" type="curve"/>
      <point x="625" y="355"/>
      <point x="614" y="364"/>
      <point x="612" y="365" type="curve"/>
      <point x="624" y="356"/>
      <point x="612" y="366"/>
      <point x="581" y="387" type="curve"/>
      <point x="561" y="401"/>
      <point x="548" y="406"/>
      <point x="528" y="424" type="curve"/>
      <point x="512" y="439"/>
      <point x="496" y="450"/>
      <point x="480" y="468" type="curve"/>
      <point x="439" y="501" type="line"/>
      <point x="408" y="524" type="line"/>
      <point x="394" y="536"/>
      <point x="380" y="548"/>
      <point x="359" y="562" type="curve"/>
      <point x="354" y="560"/>
      <point x="353" y="518"/>
      <point x="354" y="512" type="curve"/>
      <point x="354" y="465"/>
      <point x="356" y="451"/>
      <point x="356" y="408" type="curve"/>
      <point x="356" y="400"/>
      <point x="349" y="398"/>
      <point x="340" y="397" type="curve"/>
      <point x="319" y="395"/>
      <point x="303" y="397"/>
      <point x="262" y="394" type="curve"/>
      <point x="198" y="393"/>
      <point x="106" y="390"/>
      <point x="57" y="390" type="curve"/>
      <point x="57" y="390"/>
      <point x="54" y="382"/>
      <point x="54" y="382" type="curve"/>
      <point x="52" y="347"/>
      <point x="54" y="309"/>
      <point x="59" y="289" type="curve"/>
      <point x="63" y="287"/>
      <point x="92" y="289"/>
      <point x="101" y="289" type="curve"/>
      <point x="180" y="291"/>
      <point x="218" y="300"/>
      <point x="337" y="300" type="curve"/>
      <point x="362" y="300"/>
      <point x="357" y="293"/>
    </contour>
    <contour>
      <point x="326" y="244" type="curve"/>
      <point x="221" y="239"/>
      <point x="187" y="231"/>
      <point x="80" y="234" type="curve"/>
      <point x="71" y="234"/>
      <point x="38" y="254"/>
      <point x="36" y="263" type="curve"/>
      <point x="29" y="294"/>
      <point x="32" y="383"/>
      <point x="34" y="415" type="curve"/>
      <point x="35" y="415"/>
      <point x="43" y="418"/>
      <point x="44" y="418" type="curve"/>
      <point x="100" y="409"/>
      <point x="188" y="418"/>
      <point x="244" y="419" type="curve"/>
      <point x="270" y="419"/>
      <point x="298" y="419"/>
      <point x="321" y="422" type="curve"/>
      <point x="321" y="453"/>
      <point x="328" y="502"/>
      <point x="323" y="541" type="curve"/>
      <point x="323" y="544"/>
      <point x="323" y="565"/>
      <point x="326" y="569" type="curve"/>
      <point x="326" y="586"/>
      <point x="350" y="591"/>
      <point x="373" y="600" type="curve"/>
      <point x="374" y="601"/>
      <point x="399" y="580"/>
      <point x="413" y="570" type="curve"/>
      <point x="414" y="571"/>
      <point x="431" y="555"/>
      <point x="456" y="536" type="curve"/>
      <point x="472" y="527"/>
      <point x="477" y="518"/>
      <point x="494" y="502" type="curve"/>
      <point x="524" y="481"/>
      <point x="536" y="462"/>
      <point x="558" y="447" type="curve"/>
      <point x="574" y="433"/>
      <point x="590" y="423"/>
      <point x="613" y="402" type="curve"/>
      <point x="630" y="387"/>
      <point x="651" y="374"/>
      <point x="667" y="358" type="curve"/>
      <point x="689" y="338"/>
      <point x="680" y="331"/>
      <point x="660" y="314" type="curve"/>
      <point x="652" y="303"/>
      <point x="610" y="274"/>
      <point x="599" y="263" type="curve"/>
      <point x="567" y="237"/>
      <point x="557" y="226"/>
      <point x="530" y="203" type="curve"/>
      <point x="487" y="167"/>
      <point x="477" y="155"/>
      <point x="437" y="122" type="curve"/>
      <point x="426" y="111"/>
      <point x="399" y="94"/>
      <point x="380" y="75" type="curve"/>
      <point x="377" y="72"/>
      <point x="328" y="87"/>
      <point x="328" y="98" type="curve"/>
      <point x="328" y="173"/>
      <point x="326" y="212"/>
    </contour>
  </outline>
</glyph>
<glyph name="uni2199" format="1">
  <advance width="610"/>
  <unicode hex="2199"/>
  <outline>
    <contour>
      <point x="345" y="321" type="curve"/>
      <point x="339" y="328"/>
      <point x="330" y="329"/>
      <point x="350" y="349" type="curve"/>
      <point x="434" y="433"/>
      <point x="463" y="448"/>
      <point x="521" y="503" type="curve"/>
      <point x="527" y="509"/>
      <point x="549" y="528"/>
      <point x="550" y="533" type="curve"/>
      <point x="540" y="550"/>
      <point x="513" y="580"/>
      <point x="487" y="603" type="curve"/>
      <point x="487" y="603"/>
      <point x="479" y="607"/>
      <point x="479" y="607" type="curve"/>
      <point x="444" y="572"/>
      <point x="381" y="514"/>
      <point x="335" y="470" type="curve"/>
      <point x="304" y="443"/>
      <point x="294" y="430"/>
      <point x="278" y="417" type="curve"/>
      <point x="271" y="411"/>
      <point x="263" y="406"/>
      <point x="257" y="411" type="curve"/>
      <point x="223" y="439"/>
      <point x="219" y="452"/>
      <point x="186" y="485" type="curve"/>
      <point x="183" y="490"/>
      <point x="148" y="525"/>
      <point x="143" y="523" type="curve"/>
      <point x="134" y="520"/>
      <point x="131" y="484"/>
      <point x="130" y="465" type="curve"/>
      <point x="126" y="421" type="line"/>
      <point x="121" y="367" type="line"/>
      <point x="123" y="343"/>
      <point x="119" y="324"/>
      <point x="118" y="302" type="curve"/>
      <point x="117" y="275"/>
      <point x="118" y="262"/>
      <point x="114" y="238" type="curve"/>
      <point x="108" y="200"/>
      <point x="108" y="186"/>
      <point x="110" y="200" type="curve"/>
      <point x="109" y="198"/>
      <point x="108" y="185"/>
      <point x="123" y="187" type="curve"/>
      <point x="141" y="189"/>
      <point x="156" y="193"/>
      <point x="179" y="193" type="curve"/>
      <point x="209" y="203"/>
      <point x="224" y="205"/>
      <point x="268" y="206" type="curve"/>
      <point x="308" y="207"/>
      <point x="337" y="210"/>
      <point x="383" y="216" type="curve"/>
      <point x="398" y="217"/>
      <point x="415" y="216"/>
      <point x="440" y="221" type="curve"/>
      <point x="434" y="238"/>
      <point x="374" y="295"/>
    </contour>
    <contour>
      <point x="393" y="313" type="curve"/>
      <point x="415" y="291"/>
      <point x="441" y="262"/>
      <point x="494" y="209" type="curve"/>
      <point x="502" y="201"/>
      <point x="478" y="156"/>
      <point x="474" y="156" type="curve"/>
      <point x="447" y="156"/>
      <point x="416" y="149"/>
      <point x="400" y="149" type="curve"/>
      <point x="349" y="144"/>
      <point x="333" y="145"/>
      <point x="277" y="140" type="curve"/>
      <point x="242" y="137"/>
      <point x="227" y="138"/>
      <point x="186" y="134" type="curve"/>
      <point x="171" y="134"/>
      <point x="120" y="125"/>
      <point x="107" y="127" type="curve"/>
      <point x="81" y="125"/>
      <point x="70" y="123"/>
      <point x="71" y="153" type="curve"/>
      <point x="71" y="175"/>
      <point x="77" y="199"/>
      <point x="78" y="222" type="curve"/>
      <point x="80" y="252"/>
      <point x="84" y="272"/>
      <point x="85" y="293" type="curve"/>
      <point x="90" y="319"/>
      <point x="85" y="341"/>
      <point x="91" y="377" type="curve"/>
      <point x="92" y="400"/>
      <point x="89" y="410"/>
      <point x="94" y="428" type="curve"/>
      <point x="99" y="459"/>
      <point x="99" y="482"/>
      <point x="101" y="482" type="curve"/>
      <point x="103" y="499"/>
      <point x="106" y="532"/>
      <point x="108" y="532" type="curve"/>
      <point x="130" y="542"/>
      <point x="151" y="555"/>
      <point x="163" y="543" type="curve"/>
      <point x="168" y="542"/>
      <point x="183" y="528"/>
      <point x="185" y="525" type="curve"/>
      <point x="209" y="494"/>
      <point x="248" y="465"/>
      <point x="270" y="443" type="curve"/>
      <point x="289" y="457"/>
      <point x="309" y="477"/>
      <point x="327" y="495" type="curve"/>
      <point x="367" y="534"/>
      <point x="416" y="568"/>
      <point x="449" y="614" type="curve"/>
      <point x="468" y="634"/>
      <point x="468" y="634"/>
      <point x="478" y="641" type="curve"/>
      <point x="502" y="619"/>
      <point x="563" y="560"/>
      <point x="580" y="533" type="curve"/>
      <point x="585" y="525"/>
      <point x="585" y="489"/>
      <point x="579" y="482" type="curve"/>
      <point x="505" y="404"/>
      <point x="470" y="384"/>
    </contour>
  </outline>
</glyph>
<glyph name="Black_Left-Pointing_Small" format="1">
  <advance width="405"/>
  <unicode hex="25C2"/>
  <outline>
    <contour>
      <point x="247" y="201" type="curve"/>
      <point x="226" y="217"/>
      <point x="164" y="251"/>
      <point x="137" y="265" type="curve"/>
      <point x="97" y="287"/>
      <point x="46" y="317"/>
      <point x="19" y="350" type="curve"/>
      <point x="17" y="354"/>
      <point x="19" y="359"/>
      <point x="18" y="363" type="curve"/>
      <point x="19" y="373"/>
      <point x="66" y="398"/>
      <point x="80" y="406" type="curve"/>
      <point x="83" y="407"/>
      <point x="185" y="474"/>
      <point x="187" y="474" type="curve"/>
      <point x="200" y="474"/>
      <point x="268" y="531"/>
      <point x="288" y="545" type="curve"/>
      <point x="305" y="549"/>
      <point x="321" y="561"/>
      <point x="334" y="570" type="curve"/>
      <point x="344" y="573"/>
      <point x="352" y="567"/>
      <point x="355" y="562" type="curve"/>
      <point x="359" y="552"/>
      <point x="356" y="492"/>
      <point x="357" y="479" type="curve"/>
      <point x="361" y="448"/>
      <point x="354" y="396"/>
      <point x="355" y="364" type="curve"/>
      <point x="358" y="307"/>
      <point x="369" y="223"/>
      <point x="364" y="167" type="curve"/>
      <point x="360" y="160"/>
      <point x="352" y="156"/>
      <point x="342" y="153" type="curve"/>
      <point x="329" y="153"/>
      <point x="267" y="189"/>
    </contour>
  </outline>
</glyph>
<glyph name="A_S" format="1">
  <advance width="755"/>
  <outline>
    <contour>
      <point x="394" y="-6" type="curve"/>
      <point x="714" y="-6" type="line"/>
      <point x="732" y="-6"/>
      <point x="727" y="8"/>
      <point x="727" y="18" type="curve"/>
      <point x="727" y="90" type="line" smooth="yes"/>
      <point x="727" y="98"/>
      <point x="721" y="101"/>
      <point x="712" y="101" type="curve"/>
      <point x="706" y="101"/>
      <point x="698" y="100"/>
      <point x="691" y="100" type="curve"/>
      <point x="680" y="100"/>
      <point x="651" y="104"/>
      <point x="564" y="104" type="curve"/>
      <point x="546" y="104"/>
      <point x="433" y="107"/>
      <point x="351" y="107" type="curve"/>
      <point x="301" y="107"/>
      <point x="234" y="108"/>
      <point x="219" y="108" type="curve"/>
      <point x="206" y="111"/>
      <point x="190" y="111"/>
      <point x="173" y="111" type="curve"/>
      <point x="140" y="111"/>
      <point x="55" y="108"/>
      <point x="40" y="108" type="curve"/>
      <point x="8" y="108"/>
      <point x="15" y="101"/>
      <point x="15" y="86" type="curve"/>
      <point x="15" y="69"/>
      <point x="5" y="14"/>
      <point x="9" y="4" type="curve"/>
      <point x="9" y="-2"/>
      <point x="15" y="-4"/>
      <point x="24" y="-4" type="curve"/>
      <point x="30" y="-4"/>
      <point x="37" y="-3"/>
      <point x="45" y="-2" type="curve"/>
      <point x="195" y="-2" type="line" smooth="yes"/>
      <point x="208" y="-2"/>
      <point x="223" y="-2"/>
      <point x="243" y="-3" type="curve"/>
      <point x="263" y="-4"/>
      <point x="323" y="-6"/>
    </contour>
    <contour>
      <point x="591" y="657" type="curve"/>
      <point x="633" y="657"/>
      <point x="674" y="628"/>
      <point x="683" y="622" type="curve"/>
      <point x="688" y="618" type="line" smooth="yes"/>
      <point x="692" y="615"/>
      <point x="695" y="614"/>
      <point x="698" y="614" type="curve"/>
      <point x="704" y="614"/>
      <point x="715" y="637"/>
      <point x="719" y="641" type="curve"/>
      <point x="721" y="643"/>
      <point x="722" y="644"/>
      <point x="722" y="647" type="curve"/>
      <point x="722" y="650"/>
      <point x="719" y="654"/>
      <point x="714" y="657" type="curve"/>
      <point x="705" y="662"/>
      <point x="663" y="705"/>
      <point x="588" y="705" type="curve"/>
      <point x="512" y="705"/>
      <point x="417" y="651"/>
      <point x="417" y="551" type="curve"/>
      <point x="417" y="467"/>
      <point x="467" y="426"/>
      <point x="525" y="393" type="curve"/>
      <point x="584" y="359"/>
      <point x="637" y="342"/>
      <point x="637" y="293" type="curve"/>
      <point x="637" y="206"/>
      <point x="559" y="209"/>
      <point x="531" y="209" type="curve"/>
      <point x="504" y="209"/>
      <point x="465" y="230"/>
      <point x="452" y="243" type="curve"/>
      <point x="441" y="254"/>
      <point x="442" y="255"/>
      <point x="437" y="255" type="curve"/>
      <point x="437" y="255"/>
      <point x="436" y="255"/>
      <point x="436" y="255" type="curve"/>
      <point x="430" y="255"/>
      <point x="418" y="231"/>
      <point x="416" y="227" type="curve"/>
      <point x="414" y="224"/>
      <point x="414" y="220"/>
      <point x="420" y="214" type="curve"/>
      <point x="426" y="208"/>
      <point x="473" y="161"/>
      <point x="539" y="161" type="curve"/>
      <point x="605" y="161"/>
      <point x="726" y="180"/>
      <point x="726" y="316" type="curve"/>
      <point x="726" y="440"/>
      <point x="626" y="462"/>
      <point x="568" y="493" type="curve"/>
      <point x="530" y="513"/>
      <point x="494" y="531"/>
      <point x="494" y="578" type="curve"/>
      <point x="494" y="623"/>
      <point x="517" y="657"/>
    </contour>
    <contour>
      <point x="68" y="326" type="curve"/>
      <point x="64" y="313"/>
      <point x="42" y="218"/>
      <point x="37" y="203" type="curve"/>
      <point x="35" y="198"/>
      <point x="34" y="190"/>
      <point x="33" y="188" type="curve"/>
      <point x="26" y="174"/>
      <point x="27" y="167"/>
      <point x="34" y="167" type="curve"/>
      <point x="58" y="167" type="line" smooth="yes"/>
      <point x="65" y="167"/>
      <point x="64" y="168"/>
      <point x="66" y="174" type="curve"/>
      <point x="68" y="181"/>
      <point x="69" y="188"/>
      <point x="71" y="194" type="curve"/>
      <point x="76" y="210"/>
      <point x="86" y="257"/>
      <point x="89" y="269" type="curve"/>
      <point x="105" y="332" type="line"/>
      <point x="106" y="339" type="line" smooth="yes"/>
      <point x="107" y="346"/>
      <point x="110" y="348"/>
      <point x="113" y="348" type="curve"/>
      <point x="114" y="348"/>
      <point x="114" y="348"/>
      <point x="115" y="348" type="curve"/>
      <point x="161" y="348" type="line" smooth="yes"/>
      <point x="186" y="348"/>
      <point x="211" y="348"/>
      <point x="218" y="349" type="curve"/>
      <point x="223" y="350"/>
      <point x="238" y="349"/>
      <point x="250" y="350" type="curve"/>
      <point x="258" y="351"/>
      <point x="266" y="351"/>
      <point x="274" y="351" type="curve"/>
      <point x="282" y="351"/>
      <point x="283" y="351"/>
      <point x="288" y="339" type="curve"/>
      <point x="293" y="324" type="line" smooth="yes"/>
      <point x="298" y="311"/>
      <point x="302" y="298"/>
      <point x="305" y="291" type="curve"/>
      <point x="312" y="278"/>
      <point x="319" y="250"/>
      <point x="322" y="239" type="curve"/>
      <point x="322" y="233"/>
      <point x="325" y="219"/>
      <point x="331" y="204" type="curve"/>
      <point x="333" y="196"/>
      <point x="335" y="187"/>
      <point x="339" y="177" type="curve"/>
      <point x="341" y="171"/>
      <point x="344" y="170"/>
      <point x="347" y="170" type="curve"/>
      <point x="398" y="170" type="line" smooth="yes"/>
      <point x="405" y="170"/>
      <point x="407" y="171"/>
      <point x="407" y="173" type="curve"/>
      <point x="407" y="175"/>
      <point x="406" y="177"/>
      <point x="404" y="181" type="curve"/>
      <point x="399" y="190"/>
      <point x="380" y="240"/>
      <point x="374" y="264" type="curve"/>
      <point x="368" y="288"/>
      <point x="349" y="343"/>
      <point x="343" y="362" type="curve"/>
      <point x="334" y="381"/>
      <point x="307" y="456"/>
      <point x="301" y="471" type="curve"/>
      <point x="297" y="485"/>
      <point x="264" y="574"/>
      <point x="262" y="588" type="curve"/>
      <point x="258" y="600"/>
      <point x="242" y="662"/>
      <point x="234" y="682" type="curve"/>
      <point x="226" y="703"/>
      <point x="220" y="720"/>
      <point x="213" y="720" type="curve"/>
      <point x="199" y="720"/>
      <point x="177" y="705"/>
      <point x="171" y="683" type="curve"/>
      <point x="167" y="663"/>
      <point x="151" y="620"/>
      <point x="147" y="608" type="curve"/>
      <point x="142" y="597"/>
      <point x="136" y="577"/>
      <point x="129" y="555" type="curve"/>
      <point x="123" y="532"/>
      <point x="113" y="495"/>
      <point x="109" y="476" type="curve"/>
      <point x="105" y="459"/>
      <point x="94" y="427"/>
      <point x="89" y="404" type="curve"/>
      <point x="83" y="382"/>
      <point x="77" y="358"/>
    </contour>
    <contour>
      <point x="264" y="407" type="curve"/>
      <point x="264" y="403"/>
      <point x="262" y="402"/>
      <point x="255" y="402" type="curve"/>
      <point x="246" y="402"/>
      <point x="229" y="402"/>
      <point x="213" y="402" type="curve"/>
      <point x="202" y="402"/>
      <point x="192" y="402"/>
      <point x="187" y="401" type="curve"/>
      <point x="177" y="401"/>
      <point x="151" y="399"/>
      <point x="143" y="399" type="curve"/>
      <point x="136" y="399"/>
      <point x="122" y="397"/>
      <point x="122" y="407" type="curve"/>
      <point x="122" y="408"/>
      <point x="122" y="410"/>
      <point x="123" y="412" type="curve"/>
      <point x="131" y="427"/>
      <point x="145" y="486"/>
      <point x="148" y="504" type="curve"/>
      <point x="154" y="522"/>
      <point x="174" y="591"/>
      <point x="177" y="608" type="curve"/>
      <point x="183" y="625"/>
      <point x="187" y="645"/>
      <point x="190" y="645" type="curve"/>
      <point x="193" y="645"/>
      <point x="201" y="619"/>
      <point x="205" y="605" type="curve"/>
      <point x="207" y="592"/>
      <point x="224" y="533"/>
      <point x="232" y="510" type="curve"/>
      <point x="240" y="487"/>
      <point x="253" y="437"/>
      <point x="259" y="424" type="curve"/>
      <point x="263" y="416"/>
      <point x="264" y="410"/>
    </contour>
  </outline>
</glyph>
<glyph name="B.alt" format="1">
  <advance width="552"/>
  <outline>
    <contour>
      <point x="416" y="351" type="curve"/>
      <point x="387" y="369"/>
      <point x="354" y="380"/>
      <point x="317" y="384" type="curve"/>
      <point x="346" y="390"/>
      <point x="372" y="399"/>
      <point x="395" y="412" type="curve"/>
      <point x="434" y="433"/>
      <point x="473" y="471"/>
      <point x="473" y="536" type="curve"/>
      <point x="473" y="667"/>
      <point x="395" y="711"/>
      <point x="291" y="711" type="curve"/>
      <point x="187" y="711"/>
      <point x="178" y="714"/>
      <point x="153" y="714" type="curve"/>
      <point x="134" y="714"/>
      <point x="116" y="710"/>
      <point x="105" y="710" type="curve"/>
      <point x="101" y="710"/>
      <point x="95" y="711"/>
      <point x="90" y="711" type="curve"/>
      <point x="81" y="711"/>
      <point x="72" y="709"/>
      <point x="72" y="698" type="curve"/>
      <point x="72" y="681"/>
      <point x="76" y="633"/>
      <point x="76" y="607" type="curve"/>
      <point x="76" y="582"/>
      <point x="66" y="503"/>
      <point x="66" y="460" type="curve"/>
      <point x="66" y="418"/>
      <point x="69" y="262"/>
      <point x="69" y="217" type="curve"/>
      <point x="69" y="172"/>
      <point x="63" y="71"/>
      <point x="63" y="52" type="curve"/>
      <point x="63" y="8" type="line"/>
      <point x="63" y="-3"/>
      <point x="66" y="-13"/>
      <point x="89" y="-13" type="curve"/>
      <point x="116" y="-13"/>
      <point x="251" y="-6"/>
      <point x="307" y="-6" type="curve"/>
      <point x="363" y="-6"/>
      <point x="516" y="4"/>
      <point x="516" y="140" type="curve"/>
      <point x="516" y="260"/>
      <point x="467" y="319"/>
    </contour>
    <contour>
      <point x="407" y="157" type="curve"/>
      <point x="407" y="64"/>
      <point x="319" y="59"/>
      <point x="278" y="59" type="curve"/>
      <point x="237" y="59"/>
      <point x="189" y="66"/>
      <point x="154" y="67" type="curve"/>
      <point x="102" y="69" type="line"/>
      <point x="95" y="69"/>
      <point x="91" y="70"/>
      <point x="91" y="85" type="curve"/>
      <point x="91" y="98"/>
      <point x="92" y="128"/>
      <point x="92" y="155" type="curve"/>
      <point x="92" y="182"/>
      <point x="95" y="212"/>
      <point x="95" y="245" type="curve"/>
      <point x="95" y="279"/>
      <point x="94" y="293"/>
      <point x="94" y="304" type="curve"/>
      <point x="94" y="313"/>
      <point x="95" y="316"/>
      <point x="118" y="316" type="curve"/>
      <point x="129" y="316"/>
      <point x="272" y="307"/>
      <point x="295" y="304" type="curve"/>
      <point x="316" y="301"/>
      <point x="407" y="272"/>
    </contour>
    <contour>
      <point x="103" y="570" type="curve"/>
      <point x="103" y="581"/>
      <point x="103" y="597"/>
      <point x="104" y="612" type="curve"/>
      <point x="106" y="637" type="line"/>
      <point x="124" y="638"/>
      <point x="141" y="639"/>
      <point x="157" y="639" type="curve"/>
      <point x="187" y="639"/>
      <point x="214" y="637"/>
      <point x="239" y="633" type="curve"/>
      <point x="305" y="623"/>
      <point x="372" y="597"/>
      <point x="372" y="531" type="curve"/>
      <point x="372" y="461"/>
      <point x="312" y="455"/>
      <point x="277" y="455" type="curve"/>
      <point x="242" y="455"/>
      <point x="210" y="452"/>
      <point x="189" y="452" type="curve"/>
      <point x="166" y="452"/>
      <point x="135" y="455"/>
      <point x="119" y="455" type="curve"/>
      <point x="103" y="455"/>
      <point x="99" y="455"/>
      <point x="99" y="470" type="curve"/>
      <point x="99" y="482"/>
      <point x="103" y="550"/>
    </contour>
  </outline>
</glyph>
<glyph name="E.alt" format="1">
  <advance width="511"/>
  <outline>
    <contour>
      <point x="92" y="314" type="curve"/>
      <point x="92" y="325"/>
      <point x="93" y="337"/>
      <point x="94" y="346" type="curve"/>
      <point x="97" y="362" type="line"/>
      <point x="106" y="361"/>
      <point x="115" y="361"/>
      <point x="125" y="361" type="curve"/>
      <point x="142" y="361"/>
      <point x="164" y="360"/>
      <point x="184" y="363" type="curve"/>
      <point x="224" y="366"/>
      <point x="272" y="366"/>
      <point x="309" y="366" type="curve"/>
      <point x="347" y="366"/>
      <point x="433" y="355"/>
      <point x="447" y="355" type="curve"/>
      <point x="462" y="355"/>
      <point x="461" y="357"/>
      <point x="462" y="366" type="curve"/>
      <point x="463" y="374"/>
      <point x="463" y="397"/>
      <point x="464" y="402" type="curve"/>
      <point x="465" y="406"/>
      <point x="463" y="415"/>
      <point x="452" y="415" type="curve"/>
      <point x="450" y="415"/>
      <point x="448" y="414"/>
      <point x="446" y="414" type="curve"/>
      <point x="442" y="413"/>
      <point x="437" y="413"/>
      <point x="431" y="413" type="curve"/>
      <point x="411" y="413"/>
      <point x="380" y="416"/>
      <point x="362" y="416" type="curve"/>
      <point x="338" y="416"/>
      <point x="322" y="413"/>
      <point x="310" y="413" type="curve"/>
      <point x="298" y="413"/>
      <point x="264" y="417"/>
      <point x="232" y="417" type="curve"/>
      <point x="201" y="417"/>
      <point x="180" y="413"/>
      <point x="163" y="413" type="curve"/>
      <point x="123" y="413" type="line" smooth="yes"/>
      <point x="114" y="413"/>
      <point x="105" y="413"/>
      <point x="96" y="414" type="curve"/>
      <point x="95" y="423"/>
      <point x="95" y="431"/>
      <point x="95" y="439" type="curve"/>
      <point x="95" y="479" type="line" smooth="yes"/>
      <point x="95" y="502"/>
      <point x="91" y="528"/>
      <point x="91" y="556" type="curve"/>
      <point x="91" y="571"/>
      <point x="91" y="588"/>
      <point x="92" y="603" type="curve"/>
      <point x="94" y="630" type="line"/>
      <point x="117" y="632" type="line" smooth="yes"/>
      <point x="130" y="633"/>
      <point x="147" y="635"/>
      <point x="162" y="635" type="curve"/>
      <point x="286" y="634" type="line"/>
      <point x="446" y="634" type="line" smooth="yes"/>
      <point x="465" y="634"/>
      <point x="467" y="631"/>
      <point x="478" y="631" type="curve"/>
      <point x="482" y="631"/>
      <point x="482" y="644"/>
      <point x="482" y="654" type="curve"/>
      <point x="482" y="659"/>
      <point x="482" y="662"/>
      <point x="482" y="665" type="curve"/>
      <point x="482" y="676"/>
      <point x="486" y="692"/>
      <point x="465" y="692" type="curve"/>
      <point x="444" y="692"/>
      <point x="343" y="695"/>
      <point x="291" y="695" type="curve"/>
      <point x="237" y="695"/>
      <point x="154" y="689"/>
      <point x="123" y="689" type="curve"/>
      <point x="92" y="689"/>
      <point x="41" y="706"/>
      <point x="44" y="669" type="curve"/>
      <point x="47" y="632"/>
      <point x="47" y="556"/>
      <point x="47" y="516" type="curve"/>
      <point x="47" y="475"/>
      <point x="39" y="376"/>
      <point x="39" y="309" type="curve"/>
      <point x="39" y="242"/>
      <point x="44" y="164"/>
      <point x="44" y="103" type="curve"/>
      <point x="44" y="59"/>
      <point x="46" y="53"/>
      <point x="46" y="46" type="curve"/>
      <point x="46" y="44"/>
      <point x="46" y="41"/>
      <point x="45" y="37" type="curve"/>
      <point x="45" y="31"/>
      <point x="44" y="26"/>
      <point x="44" y="21" type="curve"/>
      <point x="44" y="12"/>
      <point x="47" y="6"/>
      <point x="67" y="6" type="curve"/>
      <point x="88" y="6"/>
      <point x="145" y="4"/>
      <point x="198" y="4" type="curve"/>
      <point x="218" y="4"/>
      <point x="237" y="4"/>
      <point x="254" y="5" type="curve"/>
      <point x="276" y="6"/>
      <point x="301" y="6"/>
      <point x="326" y="6" type="curve"/>
      <point x="372" y="6"/>
      <point x="417" y="5"/>
      <point x="435" y="3" type="curve"/>
      <point x="442" y="2"/>
      <point x="448" y="2"/>
      <point x="453" y="2" type="curve"/>
      <point x="468" y="2"/>
      <point x="474" y="5"/>
      <point x="474" y="14" type="curve"/>
      <point x="474" y="25"/>
      <point x="476" y="36"/>
      <point x="476" y="45" type="curve"/>
      <point x="476" y="56"/>
      <point x="476" y="61"/>
      <point x="465" y="61" type="curve"/>
      <point x="454" y="61"/>
      <point x="428" y="63"/>
      <point x="401" y="63" type="curve"/>
      <point x="374" y="63"/>
      <point x="340" y="60"/>
      <point x="304" y="60" type="curve"/>
      <point x="268" y="60"/>
      <point x="235" y="62"/>
      <point x="198" y="62" type="curve"/>
      <point x="179" y="62"/>
      <point x="154" y="62"/>
      <point x="133" y="63" type="curve"/>
      <point x="121" y="63"/>
      <point x="108" y="63"/>
      <point x="95" y="64" type="curve"/>
      <point x="95" y="72"/>
      <point x="95" y="80"/>
      <point x="96" y="89" type="curve"/>
      <point x="96" y="104"/>
      <point x="97" y="122"/>
      <point x="97" y="139" type="curve"/>
      <point x="96" y="258" type="line" smooth="yes"/>
      <point x="96" y="281"/>
      <point x="92" y="291"/>
    </contour>
    <contour>
      <point x="265" y="0" type="move" name="bottom"/>
    </contour>
    <contour>
      <point x="390" y="0" type="move" name="ogonek"/>
    </contour>
    <contour>
      <point x="282" y="710" type="move" name="top"/>
    </contour>
  </outline>
</glyph>
<glyph name="E_U" format="1">
  <advance width="768"/>
  <outline>
    <contour>
      <point x="452" y="386" type="curve"/>
      <point x="452" y="499"/>
      <point x="454" y="638"/>
      <point x="454" y="695" type="curve"/>
      <point x="454" y="700"/>
      <point x="453" y="703"/>
      <point x="450" y="703" type="curve"/>
      <point x="445" y="703"/>
      <point x="441" y="702"/>
      <point x="436" y="702" type="curve"/>
      <point x="433" y="702"/>
      <point x="426" y="703"/>
      <point x="423" y="703" type="curve"/>
      <point x="418" y="705"/>
      <point x="408" y="706"/>
      <point x="408" y="685" type="curve"/>
      <point x="408" y="681"/>
      <point x="408" y="677"/>
      <point x="409" y="673" type="curve"/>
      <point x="413" y="651"/>
      <point x="412" y="586"/>
      <point x="412" y="533" type="curve"/>
      <point x="412" y="500"/>
      <point x="412" y="473"/>
      <point x="411" y="462" type="curve"/>
      <point x="409" y="452"/>
      <point x="408" y="430"/>
      <point x="408" y="404" type="curve"/>
      <point x="408" y="357"/>
      <point x="411" y="298"/>
      <point x="419" y="273" type="curve"/>
      <point x="431" y="233"/>
      <point x="467" y="168"/>
      <point x="540" y="168" type="curve"/>
      <point x="615" y="168"/>
      <point x="699" y="211"/>
      <point x="702" y="355" type="curve"/>
      <point x="705" y="499"/>
      <point x="695" y="593"/>
      <point x="698" y="620" type="curve"/>
      <point x="699" y="628"/>
      <point x="699" y="636"/>
      <point x="699" y="644" type="curve"/>
      <point x="699" y="661"/>
      <point x="698" y="677"/>
      <point x="697" y="686" type="curve"/>
      <point x="696" y="698"/>
      <point x="698" y="704"/>
      <point x="680" y="704" type="curve"/>
      <point x="663" y="704"/>
      <point x="629" y="703"/>
      <point x="621" y="704" type="curve"/>
      <point x="614" y="705"/>
      <point x="599" y="708"/>
      <point x="599" y="689" type="curve"/>
      <point x="599" y="685"/>
      <point x="600" y="680"/>
      <point x="602" y="674" type="curve"/>
      <point x="605" y="663"/>
      <point x="605" y="644"/>
      <point x="605" y="621" type="curve"/>
      <point x="605" y="572"/>
      <point x="601" y="506"/>
      <point x="601" y="466" type="curve"/>
      <point x="601" y="408"/>
      <point x="597" y="311"/>
      <point x="597" y="292" type="curve"/>
      <point x="597" y="271"/>
      <point x="585" y="231"/>
      <point x="533" y="231" type="curve"/>
      <point x="483" y="231"/>
      <point x="452" y="296"/>
    </contour>
    <contour>
      <point x="368" y="111" type="curve"/>
      <point x="72" y="111" type="line"/>
      <point x="54" y="111"/>
      <point x="59" y="97"/>
      <point x="59" y="87" type="curve"/>
      <point x="59" y="15" type="line" smooth="yes"/>
      <point x="59" y="7"/>
      <point x="65" y="4"/>
      <point x="74" y="4" type="curve"/>
      <point x="80" y="4"/>
      <point x="88" y="5"/>
      <point x="95" y="5" type="curve"/>
      <point x="106" y="5"/>
      <point x="135" y="1"/>
      <point x="222" y="1" type="curve"/>
      <point x="240" y="1"/>
      <point x="329" y="-2"/>
      <point x="411" y="-2" type="curve"/>
      <point x="461" y="-2"/>
      <point x="528" y="-3"/>
      <point x="543" y="-3" type="curve"/>
      <point x="556" y="-6"/>
      <point x="572" y="-6"/>
      <point x="589" y="-6" type="curve"/>
      <point x="632" y="-6"/>
      <point x="657" y="-3"/>
      <point x="672" y="-3" type="curve"/>
      <point x="704" y="-3"/>
      <point x="697" y="4"/>
      <point x="697" y="19" type="curve"/>
      <point x="697" y="36"/>
      <point x="707" y="91"/>
      <point x="703" y="101" type="curve"/>
      <point x="703" y="107"/>
      <point x="697" y="109"/>
      <point x="688" y="109" type="curve"/>
      <point x="682" y="109"/>
      <point x="675" y="108"/>
      <point x="667" y="107" type="curve"/>
      <point x="567" y="107" type="line" smooth="yes"/>
      <point x="554" y="107"/>
      <point x="539" y="107"/>
      <point x="519" y="108" type="curve"/>
      <point x="499" y="109"/>
      <point x="439" y="111"/>
    </contour>
    <contour>
      <point x="65" y="465" type="curve"/>
      <point x="65" y="407"/>
      <point x="60" y="393"/>
      <point x="60" y="348" type="curve"/>
      <point x="60" y="244" type="line" smooth="yes"/>
      <point x="60" y="228"/>
      <point x="62" y="221"/>
      <point x="62" y="212" type="curve"/>
      <point x="62" y="203"/>
      <point x="62" y="192"/>
      <point x="62" y="184" type="curve"/>
      <point x="62" y="177"/>
      <point x="62" y="171"/>
      <point x="68" y="171" type="curve"/>
      <point x="70" y="171"/>
      <point x="71" y="172"/>
      <point x="73" y="172" type="curve"/>
      <point x="83" y="172"/>
      <point x="161" y="175"/>
      <point x="197" y="175" type="curve"/>
      <point x="233" y="175"/>
      <point x="305" y="173"/>
      <point x="330" y="173" type="curve"/>
      <point x="354" y="173"/>
      <point x="366" y="169"/>
      <point x="366" y="190" type="curve"/>
      <point x="366" y="212"/>
      <point x="367" y="232"/>
      <point x="367" y="248" type="curve"/>
      <point x="367" y="252"/>
      <point x="368" y="258"/>
      <point x="368" y="263" type="curve"/>
      <point x="368" y="272"/>
      <point x="366" y="279"/>
      <point x="353" y="279" type="curve"/>
      <point x="346" y="279"/>
      <point x="335" y="278"/>
      <point x="321" y="278" type="curve"/>
      <point x="291" y="278"/>
      <point x="251" y="279"/>
      <point x="226" y="279" type="curve"/>
      <point x="192" y="279"/>
      <point x="159" y="279"/>
      <point x="142" y="279" type="curve"/>
      <point x="133" y="279"/>
      <point x="126" y="278"/>
      <point x="121" y="278" type="curve"/>
      <point x="118" y="277"/>
      <point x="115" y="277"/>
      <point x="112" y="277" type="curve"/>
      <point x="112" y="355" type="line"/>
      <point x="113" y="354"/>
      <point x="115" y="354"/>
      <point x="117" y="354" type="curve"/>
      <point x="118" y="353"/>
      <point x="121" y="353"/>
      <point x="127" y="353" type="curve"/>
      <point x="135" y="353"/>
      <point x="167" y="359"/>
      <point x="211" y="359" type="curve"/>
      <point x="258" y="359"/>
      <point x="274" y="358"/>
      <point x="286" y="358" type="curve"/>
      <point x="292" y="358"/>
      <point x="297" y="355"/>
      <point x="300" y="355" type="curve"/>
      <point x="305" y="355"/>
      <point x="307" y="358"/>
      <point x="307" y="367" type="curve"/>
      <point x="307" y="386"/>
      <point x="306" y="396"/>
      <point x="306" y="410" type="curve"/>
      <point x="306" y="430"/>
      <point x="308" y="434"/>
      <point x="308" y="439" type="curve"/>
      <point x="308" y="444"/>
      <point x="306" y="448"/>
      <point x="298" y="448" type="curve"/>
      <point x="289" y="448"/>
      <point x="279" y="450"/>
      <point x="261" y="450" type="curve"/>
      <point x="243" y="450"/>
      <point x="209" y="447"/>
      <point x="181" y="447" type="curve"/>
      <point x="164" y="447"/>
      <point x="146" y="446"/>
      <point x="133" y="448" type="curve"/>
      <point x="125" y="449"/>
      <point x="118" y="448"/>
      <point x="112" y="449" type="curve"/>
      <point x="112" y="457"/>
      <point x="112" y="465"/>
      <point x="112" y="473" type="curve"/>
      <point x="112" y="503" type="line" smooth="yes"/>
      <point x="112" y="529"/>
      <point x="114" y="558"/>
      <point x="114" y="570" type="curve"/>
      <point x="114" y="581"/>
      <point x="113" y="585"/>
      <point x="121" y="585" type="curve"/>
      <point x="126" y="585"/>
      <point x="143" y="584"/>
      <point x="161" y="584" type="curve"/>
      <point x="176" y="584"/>
      <point x="185" y="584"/>
      <point x="196" y="586" type="curve"/>
      <point x="203" y="587"/>
      <point x="210" y="587"/>
      <point x="217" y="587" type="curve"/>
      <point x="236" y="587"/>
      <point x="255" y="585"/>
      <point x="274" y="585" type="curve"/>
      <point x="306" y="585"/>
      <point x="329" y="585"/>
      <point x="340" y="583" type="curve"/>
      <point x="345" y="582"/>
      <point x="351" y="579"/>
      <point x="357" y="579" type="curve"/>
      <point x="362" y="579"/>
      <point x="366" y="581"/>
      <point x="367" y="590" type="curve"/>
      <point x="370" y="603"/>
      <point x="370" y="612"/>
      <point x="370" y="618" type="curve"/>
      <point x="370" y="642"/>
      <point x="366" y="665"/>
      <point x="366" y="681" type="curve"/>
      <point x="366" y="695"/>
      <point x="365" y="702"/>
      <point x="351" y="702" type="curve"/>
      <point x="336" y="702"/>
      <point x="298" y="705"/>
      <point x="267" y="705" type="curve"/>
      <point x="237" y="705"/>
      <point x="186" y="698"/>
      <point x="153" y="698" type="curve"/>
      <point x="119" y="698"/>
      <point x="101" y="700"/>
      <point x="89" y="700" type="curve"/>
      <point x="86" y="700"/>
      <point x="82" y="701"/>
      <point x="78" y="701" type="curve"/>
      <point x="70" y="701"/>
      <point x="64" y="699"/>
      <point x="64" y="685" type="curve"/>
      <point x="64" y="663"/>
      <point x="62" y="619"/>
      <point x="62" y="574" type="curve"/>
      <point x="62" y="528"/>
      <point x="65" y="523"/>
    </contour>
  </outline>
</glyph>
<glyph name=".notdef" format="1">
  <advance width="500"/>
  <outline>
    <contour>
      <point x="282" y="699" type="curve"/>
      <point x="270" y="699"/>
      <point x="231" y="702"/>
      <point x="180" y="701" type="curve"/>
      <point x="78" y="701" type="line" smooth="yes"/>
      <point x="67" y="701"/>
      <point x="57" y="702"/>
      <point x="57" y="670" type="curve"/>
      <point x="57" y="645"/>
      <point x="55" y="475"/>
      <point x="55" y="411" type="curve"/>
      <point x="55" y="350"/>
      <point x="57" y="106"/>
      <point x="57" y="65" type="curve"/>
      <point x="57" y="22"/>
      <point x="52" y="-1"/>
      <point x="80" y="2" type="curve"/>
      <point x="98" y="1"/>
      <point x="124" y="1"/>
      <point x="158" y="1" type="curve"/>
      <point x="237" y="3"/>
      <point x="316" y="4"/>
      <point x="395" y="4" type="curve"/>
      <point x="406" y="4"/>
      <point x="426" y="5"/>
      <point x="431" y="6" type="curve"/>
      <point x="435" y="7"/>
      <point x="441" y="5"/>
      <point x="441" y="13" type="curve"/>
      <point x="441" y="14"/>
      <point x="441" y="16"/>
      <point x="440" y="19" type="curve"/>
      <point x="439" y="26"/>
      <point x="438" y="36"/>
      <point x="438" y="48" type="curve"/>
      <point x="438" y="62"/>
      <point x="439" y="78"/>
      <point x="439" y="88" type="curve"/>
      <point x="439" y="106"/>
      <point x="445" y="255"/>
      <point x="445" y="300" type="curve"/>
      <point x="445" y="344"/>
      <point x="448" y="558"/>
      <point x="452" y="603" type="curve"/>
      <point x="456" y="648"/>
      <point x="460" y="671"/>
      <point x="461" y="682" type="curve"/>
      <point x="462" y="685"/>
      <point x="463" y="688"/>
      <point x="463" y="690" type="curve"/>
      <point x="463" y="695"/>
      <point x="460" y="698"/>
      <point x="453" y="700" type="curve"/>
      <point x="445" y="702"/>
      <point x="433" y="703"/>
      <point x="414" y="703" type="curve"/>
      <point x="376" y="703"/>
      <point x="348" y="699"/>
    </contour>
    <contour>
      <point x="161" y="653" type="curve"/>
      <point x="166" y="653"/>
      <point x="171" y="653"/>
      <point x="177" y="652" type="curve"/>
      <point x="238" y="651"/>
      <point x="272" y="650"/>
      <point x="280" y="649" type="curve"/>
      <point x="288" y="649"/>
      <point x="298" y="648"/>
      <point x="309" y="647" type="curve"/>
      <point x="314" y="646"/>
      <point x="320" y="646"/>
      <point x="327" y="646" type="curve"/>
      <point x="340" y="646"/>
      <point x="354" y="647"/>
      <point x="367" y="648" type="curve"/>
      <point x="361" y="636" type="line"/>
      <point x="353" y="612"/>
      <point x="327" y="544"/>
      <point x="305" y="512" type="curve"/>
      <point x="298" y="496"/>
      <point x="276" y="450"/>
      <point x="252" y="400" type="curve"/>
      <point x="228" y="450"/>
      <point x="206" y="496"/>
      <point x="199" y="512" type="curve"/>
      <point x="177" y="544"/>
      <point x="151" y="612"/>
      <point x="143" y="636" type="curve"/>
      <point x="136" y="651" type="line"/>
      <point x="142" y="652"/>
      <point x="151" y="653"/>
    </contour>
    <contour>
      <point x="393" y="476" type="line" smooth="yes"/>
      <point x="393" y="459"/>
      <point x="394" y="438"/>
      <point x="394" y="421" type="curve"/>
      <point x="392" y="391" type="line" smooth="yes"/>
      <point x="391" y="374"/>
      <point x="391" y="356"/>
      <point x="391" y="341" type="curve"/>
      <point x="391" y="326"/>
      <point x="390" y="308"/>
      <point x="389" y="293" type="curve"/>
      <point x="388" y="284"/>
      <point x="388" y="276"/>
      <point x="388" y="267" type="curve"/>
      <point x="388" y="227"/>
      <point x="387" y="181"/>
      <point x="388" y="160" type="curve"/>
      <point x="388" y="114" type="line"/>
      <point x="365" y="161"/>
      <point x="333" y="228"/>
      <point x="315" y="270" type="curve"/>
      <point x="280" y="342" type="line"/>
      <point x="301" y="389"/>
      <point x="323" y="439"/>
      <point x="334" y="461" type="curve"/>
      <point x="347" y="494"/>
      <point x="377" y="553"/>
      <point x="395" y="588" type="curve"/>
    </contour>
    <contour>
      <point x="111" y="313" type="curve"/>
      <point x="112" y="322"/>
      <point x="111" y="344"/>
      <point x="110" y="378" type="curve"/>
      <point x="113" y="453" type="line"/>
      <point x="117" y="552" type="line"/>
      <point x="118" y="572" type="line"/>
      <point x="135" y="537"/>
      <point x="159" y="489"/>
      <point x="170" y="461" type="curve"/>
      <point x="181" y="439"/>
      <point x="203" y="389"/>
      <point x="224" y="342" type="curve"/>
      <point x="189" y="270" type="line"/>
      <point x="169" y="223"/>
      <point x="131" y="146"/>
      <point x="109" y="99" type="curve"/>
      <point x="108" y="113"/>
      <point x="108" y="129"/>
      <point x="108" y="148" type="curve"/>
      <point x="108" y="184"/>
      <point x="109" y="229"/>
      <point x="109" y="252" type="curve"/>
      <point x="109" y="275"/>
      <point x="110" y="297"/>
    </contour>
    <contour>
      <point x="345" y="71" type="line" smooth="yes"/>
      <point x="333" y="71"/>
      <point x="262" y="71"/>
      <point x="243" y="68" type="curve"/>
      <point x="234" y="67"/>
      <point x="202" y="67"/>
      <point x="178" y="67" type="curve"/>
      <point x="151" y="68" type="line"/>
      <point x="170" y="115"/>
      <point x="223" y="220"/>
      <point x="236" y="247" type="curve"/>
      <point x="239" y="254"/>
      <point x="245" y="265"/>
      <point x="252" y="280" type="curve"/>
      <point x="259" y="265"/>
      <point x="265" y="254"/>
      <point x="268" y="247" type="curve"/>
      <point x="281" y="221"/>
      <point x="332" y="118"/>
      <point x="352" y="71" type="curve"/>
    </contour>
  </outline>
</glyph>
<glyph name="b.alt" format="1">
  <advance width="513"/>
  <outline>
    <contour>
      <point x="470" y="303" type="curve"/>
      <point x="470" y="391"/>
      <point x="453" y="459"/>
      <point x="419" y="504" type="curve"/>
      <point x="403" y="527"/>
      <point x="382" y="544"/>
      <point x="358" y="555" type="curve"/>
      <point x="331" y="567"/>
      <point x="300" y="573"/>
      <point x="264" y="573" type="curve"/>
      <point x="236" y="573"/>
      <point x="174" y="557"/>
      <point x="152" y="550" type="curve"/>
      <point x="151" y="571"/>
      <point x="151" y="600"/>
      <point x="151" y="618" type="curve"/>
      <point x="151" y="671"/>
      <point x="158" y="687"/>
      <point x="158" y="718" type="curve"/>
      <point x="158" y="741"/>
      <point x="155" y="750"/>
      <point x="145" y="749" type="curve"/>
      <point x="114" y="746"/>
      <point x="85" y="749"/>
      <point x="79" y="747" type="curve"/>
      <point x="71" y="744"/>
      <point x="72" y="740"/>
      <point x="72" y="731" type="curve"/>
      <point x="72" y="708"/>
      <point x="74" y="667"/>
      <point x="74" y="634" type="curve"/>
      <point x="74" y="604"/>
      <point x="71" y="452"/>
      <point x="69" y="394" type="curve"/>
      <point x="66" y="336"/>
      <point x="66" y="317"/>
      <point x="67" y="271" type="curve"/>
      <point x="68" y="224"/>
      <point x="66" y="57"/>
      <point x="66" y="38" type="curve"/>
      <point x="66" y="18"/>
      <point x="69" y="-1"/>
      <point x="87" y="-1" type="curve"/>
      <point x="97" y="-1"/>
      <point x="118" y="1"/>
      <point x="143" y="0" type="curve"/>
      <point x="155" y="0"/>
      <point x="158" y="10"/>
      <point x="157" y="26" type="curve"/>
      <point x="157" y="28"/>
      <point x="157" y="38"/>
      <point x="157" y="40" type="curve"/>
      <point x="175" y="33"/>
      <point x="227" y="20"/>
      <point x="262" y="20" type="curve"/>
      <point x="404" y="20"/>
      <point x="470" y="110"/>
    </contour>
    <contour>
      <point x="369" y="300" type="curve"/>
      <point x="369" y="230"/>
      <point x="357" y="179"/>
      <point x="332" y="146" type="curve"/>
      <point x="307" y="114"/>
      <point x="271" y="98"/>
      <point x="223" y="98" type="curve"/>
      <point x="211" y="98"/>
      <point x="168" y="108"/>
      <point x="156" y="112" type="curve"/>
      <point x="155" y="207"/>
      <point x="153" y="333"/>
      <point x="152" y="456" type="curve"/>
      <point x="168" y="466"/>
      <point x="225" y="482"/>
      <point x="240" y="482" type="curve"/>
      <point x="313" y="482"/>
      <point x="369" y="410"/>
    </contour>
  </outline>
</glyph>
<glyph name="d.alt" format="1">
  <advance width="503"/>
  <outline>
    <contour>
      <point x="442" y="89" type="curve"/>
      <point x="440" y="349" type="line"/>
      <point x="439" y="362"/>
      <point x="439" y="373"/>
      <point x="439" y="384" type="curve"/>
      <point x="439" y="438" type="line" smooth="yes"/>
      <point x="439" y="465"/>
      <point x="448" y="664"/>
      <point x="448" y="687" type="curve"/>
      <point x="448" y="711"/>
      <point x="447" y="722"/>
      <point x="447" y="727" type="curve"/>
      <point x="447" y="733"/>
      <point x="447" y="739"/>
      <point x="434" y="739" type="curve"/>
      <point x="402" y="740" type="line" smooth="yes"/>
      <point x="398" y="740"/>
      <point x="391" y="742"/>
      <point x="384" y="742" type="curve"/>
      <point x="380" y="742"/>
      <point x="376" y="741"/>
      <point x="376" y="735" type="curve"/>
      <point x="375" y="670" type="line" smooth="yes"/>
      <point x="375" y="665"/>
      <point x="374" y="611"/>
      <point x="374" y="562" type="curve"/>
      <point x="338" y="583"/>
      <point x="294" y="595"/>
      <point x="249" y="595" type="curve"/>
      <point x="95" y="595"/>
      <point x="40" y="453"/>
      <point x="40" y="298" type="curve"/>
      <point x="40" y="241"/>
      <point x="54" y="-11"/>
      <point x="249" y="-11" type="curve"/>
      <point x="305" y="-11"/>
      <point x="347" y="0"/>
      <point x="377" y="14" type="curve"/>
      <point x="377" y="13" type="line"/>
      <point x="377" y="0"/>
      <point x="378" y="-2"/>
      <point x="386" y="-2" type="curve"/>
      <point x="393" y="-2"/>
      <point x="398" y="0"/>
      <point x="414" y="0" type="curve"/>
      <point x="426" y="0"/>
      <point x="428" y="-2"/>
      <point x="431" y="-2" type="curve"/>
      <point x="437" y="-2"/>
      <point x="446" y="-4"/>
      <point x="446" y="10" type="curve"/>
      <point x="446" y="25"/>
      <point x="442" y="72"/>
    </contour>
    <contour>
      <point x="376" y="100" type="line"/>
      <point x="353" y="63"/>
      <point x="314" y="36"/>
      <point x="253" y="36" type="curve"/>
      <point x="143" y="36"/>
      <point x="109" y="211"/>
      <point x="109" y="350" type="curve"/>
      <point x="109" y="488"/>
      <point x="179" y="545"/>
      <point x="233" y="545" type="curve"/>
      <point x="284" y="545"/>
      <point x="341" y="523"/>
      <point x="374" y="478" type="curve"/>
      <point x="374" y="474" type="line" smooth="yes"/>
      <point x="374" y="455"/>
      <point x="374" y="432"/>
      <point x="375" y="413" type="curve"/>
      <point x="376" y="395"/>
      <point x="376" y="344"/>
      <point x="376" y="297" type="curve"/>
      <point x="376" y="219" type="line"/>
    </contour>
    <contour>
      <point x="254" y="0" type="move" name="bottom"/>
    </contour>
    <contour>
      <point x="237" y="602" type="move" name="top"/>
    </contour>
  </outline>
</glyph>
<glyph name="f_l.alt" format="1">
  <advance width="510"/>
  <outline>
    <contour>
      <point x="18" y="581" type="curve"/>
      <point x="33" y="581"/>
      <point x="51" y="580"/>
      <point x="68" y="579" type="curve"/>
      <point x="68" y="699"/>
      <point x="95" y="739"/>
      <point x="216" y="739" type="curve"/>
      <point x="251" y="739"/>
      <point x="383" y="731"/>
      <point x="419" y="721" type="curve"/>
      <point x="433" y="717"/>
      <point x="443" y="714"/>
      <point x="443" y="704" type="curve"/>
      <point x="443" y="698"/>
      <point x="442" y="691"/>
      <point x="441" y="681" type="curve"/>
      <point x="439" y="657"/>
      <point x="432" y="615"/>
      <point x="433" y="516" type="curve"/>
      <point x="432" y="489"/>
      <point x="433" y="463"/>
      <point x="433" y="436" type="curve"/>
      <point x="433" y="362"/>
      <point x="433" y="296"/>
      <point x="433" y="278" type="curve"/>
      <point x="433" y="257"/>
      <point x="438" y="141"/>
      <point x="438" y="100" type="curve"/>
      <point x="438" y="80" type="line" smooth="yes"/>
      <point x="438" y="71"/>
      <point x="445" y="67"/>
      <point x="460" y="67" type="curve"/>
      <point x="477" y="67"/>
      <point x="481" y="73"/>
      <point x="488" y="73" type="curve"/>
      <point x="494" y="73"/>
      <point x="498" y="68"/>
      <point x="501" y="59" type="curve"/>
      <point x="501" y="59"/>
      <point x="505" y="45"/>
      <point x="511" y="34" type="curve"/>
      <point x="514" y="28"/>
      <point x="508" y="23"/>
      <point x="507" y="22" type="curve"/>
      <point x="479" y="-2"/>
      <point x="454" y="-3"/>
      <point x="419" y="-4" type="curve"/>
      <point x="281" y="-8"/>
      <point x="301" y="58"/>
      <point x="301" y="162" type="curve"/>
      <point x="301" y="229"/>
      <point x="300" y="346"/>
      <point x="300" y="368" type="curve"/>
      <point x="299" y="395"/>
      <point x="301" y="537"/>
      <point x="300" y="562" type="curve"/>
      <point x="300" y="575"/>
      <point x="301" y="598"/>
      <point x="301" y="618" type="curve"/>
      <point x="302" y="656" type="line"/>
      <point x="302" y="677" type="line"/>
      <point x="261" y="683"/>
      <point x="231" y="685"/>
      <point x="200" y="685" type="curve"/>
      <point x="155" y="685"/>
      <point x="128" y="668"/>
      <point x="128" y="622" type="curve"/>
      <point x="128" y="602" type="line" smooth="yes"/>
      <point x="128" y="595"/>
      <point x="127" y="587"/>
      <point x="127" y="579" type="curve"/>
      <point x="156" y="580"/>
      <point x="187" y="582"/>
      <point x="215" y="581" type="curve"/>
      <point x="223" y="580"/>
      <point x="237" y="580"/>
      <point x="240" y="572" type="curve"/>
      <point x="240" y="535" type="line" smooth="yes"/>
      <point x="240" y="522"/>
      <point x="244" y="510"/>
      <point x="243" y="500" type="curve"/>
      <point x="243" y="490"/>
      <point x="241" y="484"/>
      <point x="234" y="481" type="curve"/>
      <point x="212" y="472"/>
      <point x="170" y="471"/>
      <point x="128" y="473" type="curve"/>
      <point x="128" y="467"/>
      <point x="129" y="459"/>
      <point x="129" y="457" type="curve"/>
      <point x="125" y="219" type="line" smooth="yes"/>
      <point x="122" y="120"/>
      <point x="127" y="61"/>
      <point x="130" y="37" type="curve"/>
      <point x="131" y="27"/>
      <point x="131" y="20"/>
      <point x="131" y="14" type="curve"/>
      <point x="131" y="4"/>
      <point x="125" y="-1"/>
      <point x="111" y="-3" type="curve"/>
      <point x="105" y="-6"/>
      <point x="96" y="-3"/>
      <point x="93" y="-4" type="curve"/>
      <point x="90" y="-5"/>
      <point x="87" y="-5"/>
      <point x="85" y="-5" type="curve"/>
      <point x="75" y="-5"/>
      <point x="67" y="2"/>
      <point x="69" y="36" type="curve"/>
      <point x="69" y="117" type="line"/>
      <point x="68" y="137"/>
      <point x="69" y="160"/>
      <point x="69" y="173" type="curve"/>
      <point x="72" y="367" type="line"/>
      <point x="73" y="381"/>
      <point x="70" y="434"/>
      <point x="69" y="476" type="curve"/>
      <point x="59" y="476" type="line" smooth="yes"/>
      <point x="7" y="477"/>
      <point x="14" y="502"/>
    </contour>
  </outline>
</glyph>
<glyph name="longs.alt" format="1">
  <advance width="476"/>
  <outline>
    <contour>
      <point x="239" y="241" type="curve"/>
      <point x="239" y="424" type="line"/>
      <point x="239" y="439"/>
      <point x="240" y="456"/>
      <point x="240" y="475" type="curve"/>
      <point x="240" y="511"/>
      <point x="241" y="541"/>
      <point x="241" y="564" type="curve"/>
      <point x="241" y="575"/>
      <point x="242" y="588"/>
      <point x="243" y="599" type="curve"/>
      <point x="246" y="617" type="line"/>
      <point x="295" y="620" type="line"/>
      <point x="322" y="623"/>
      <point x="352" y="624"/>
      <point x="369" y="624" type="curve"/>
      <point x="404" y="624"/>
      <point x="444" y="622"/>
      <point x="456" y="622" type="curve"/>
      <point x="468" y="622"/>
      <point x="474" y="621"/>
      <point x="474" y="634" type="curve"/>
      <point x="474" y="684" type="line" smooth="yes"/>
      <point x="474" y="694"/>
      <point x="466" y="699"/>
      <point x="451" y="699" type="curve"/>
      <point x="367" y="700" type="line" smooth="yes"/>
      <point x="346" y="700"/>
      <point x="275" y="694"/>
      <point x="254" y="694" type="curve"/>
      <point x="234" y="694"/>
      <point x="138" y="690"/>
      <point x="114" y="690" type="curve"/>
      <point x="103" y="690"/>
      <point x="94" y="692"/>
      <point x="86" y="692" type="curve"/>
      <point x="75" y="692"/>
      <point x="68" y="687"/>
      <point x="68" y="662" type="curve"/>
      <point x="69" y="621"/>
      <point x="70" y="571"/>
      <point x="70" y="524" type="curve"/>
      <point x="70" y="477"/>
      <point x="67" y="432"/>
      <point x="67" y="388" type="curve"/>
      <point x="67" y="344"/>
      <point x="68" y="317"/>
      <point x="68" y="274" type="curve"/>
      <point x="68" y="231"/>
      <point x="62" y="212"/>
      <point x="62" y="169" type="curve"/>
      <point x="62" y="126"/>
      <point x="64" y="92"/>
      <point x="64" y="77" type="curve"/>
      <point x="65" y="24" type="line" smooth="yes"/>
      <point x="65" y="12"/>
      <point x="62" y="5"/>
      <point x="81" y="4" type="curve"/>
      <point x="92" y="4"/>
      <point x="125" y="5"/>
      <point x="154" y="5" type="curve"/>
      <point x="168" y="5"/>
      <point x="182" y="5"/>
      <point x="191" y="4" type="curve"/>
      <point x="200" y="3"/>
      <point x="208" y="2"/>
      <point x="214" y="2" type="curve"/>
      <point x="229" y="2"/>
      <point x="237" y="7"/>
      <point x="237" y="25" type="curve"/>
      <point x="236" y="143" type="line" smooth="yes"/>
      <point x="236" y="178"/>
      <point x="239" y="206"/>
    </contour>
  </outline>
</glyph>
<glyph name="two.ss01" format="1">
  <advance width="500"/>
  <outline>
    <contour>
      <point x="148" y="88" type="curve"/>
      <point x="141" y="88"/>
      <point x="149" y="96"/>
      <point x="156" y="103" type="curve"/>
      <point x="185" y="142" type="line"/>
      <point x="231" y="202" type="line"/>
      <point x="268" y="252" type="line" smooth="yes"/>
      <point x="307" y="304"/>
      <point x="351" y="361"/>
      <point x="365" y="385" type="curve"/>
      <point x="394" y="432"/>
      <point x="433" y="487"/>
      <point x="433" y="566" type="curve"/>
      <point x="433" y="644"/>
      <point x="372" y="720"/>
      <point x="276" y="720" type="curve"/>
      <point x="249" y="720"/>
      <point x="212" y="711"/>
      <point x="177" y="696" type="curve"/>
      <point x="144" y="683"/>
      <point x="117" y="658"/>
      <point x="92" y="633" type="curve"/>
      <point x="64" y="596"/>
      <point x="49" y="575"/>
      <point x="47" y="572" type="curve"/>
      <point x="46" y="569"/>
      <point x="48" y="564"/>
      <point x="53" y="559" type="curve"/>
      <point x="64" y="540"/>
      <point x="70" y="530"/>
      <point x="72" y="528" type="curve"/>
      <point x="76" y="525"/>
      <point x="78" y="522"/>
      <point x="81" y="522" type="curve"/>
      <point x="82" y="522"/>
      <point x="84" y="523"/>
      <point x="86" y="524" type="curve"/>
      <point x="92" y="527"/>
      <point x="130" y="580"/>
      <point x="155" y="591" type="curve"/>
      <point x="182" y="602"/>
      <point x="216" y="617"/>
      <point x="276" y="617" type="curve"/>
      <point x="305" y="617"/>
      <point x="339" y="596"/>
      <point x="359" y="577" type="curve"/>
      <point x="371" y="565"/>
      <point x="379" y="548"/>
      <point x="379" y="525" type="curve"/>
      <point x="379" y="510"/>
      <point x="376" y="493"/>
      <point x="368" y="474" type="curve"/>
      <point x="328" y="375"/>
      <point x="261" y="305"/>
      <point x="219" y="255" type="curve"/>
      <point x="177" y="205"/>
      <point x="72" y="69"/>
      <point x="56" y="50" type="curve"/>
      <point x="40" y="31"/>
      <point x="32" y="23"/>
      <point x="32" y="12" type="curve"/>
      <point x="32" y="4"/>
      <point x="41" y="1"/>
      <point x="51" y="1" type="curve"/>
      <point x="56" y="1"/>
      <point x="61" y="1"/>
      <point x="65" y="2" type="curve"/>
      <point x="70" y="3"/>
      <point x="91" y="3"/>
      <point x="119" y="3" type="curve"/>
      <point x="174" y="3"/>
      <point x="254" y="2"/>
      <point x="277" y="2" type="curve"/>
      <point x="286" y="1"/>
      <point x="300" y="1"/>
      <point x="315" y="1" type="curve"/>
      <point x="356" y="1"/>
      <point x="410" y="3"/>
      <point x="429" y="3" type="curve"/>
      <point x="457" y="3"/>
      <point x="468" y="4"/>
      <point x="468" y="31" type="curve"/>
      <point x="468" y="43"/>
      <point x="468" y="49"/>
      <point x="467" y="49" type="curve"/>
      <point x="468" y="61" type="line"/>
      <point x="468" y="77"/>
      <point x="475" y="95"/>
      <point x="437" y="92" type="curve"/>
      <point x="399" y="89"/>
      <point x="296" y="88"/>
      <point x="261" y="88" type="curve"/>
      <point x="248" y="87"/>
      <point x="233" y="87"/>
      <point x="216" y="87" type="curve"/>
      <point x="174" y="87"/>
      <point x="152" y="88"/>
    </contour>
  </outline>
</glyph>
